<svg id="svg" version="1.1" xmlns="http://www.w3.org/2000/svg" xmlns:xlink="http://www.w3.org/1999/xlink" width="400" height="400" viewBox="0, 0, 400,400"><g id="svgg"><path id="path0" d="M85.600 38.036 C 84.610 38.220,82.540 38.535,81.000 38.734 C 73.484 39.709,64.631 43.535,56.405 49.362 C 52.974 51.792,41.981 62.373,40.573 64.600 C 40.156 65.260,38.983 66.880,37.966 68.200 C 32.911 74.766,25.792 87.678,22.088 97.000 C 21.651 98.100,20.932 99.900,20.489 101.000 C 18.727 105.382,18.385 106.327,17.374 109.600 C 16.797 111.470,16.002 113.990,15.610 115.200 C 15.217 116.410,14.534 118.840,14.092 120.600 C 13.650 122.360,13.080 124.610,12.825 125.600 C 11.209 131.868,10.040 137.153,9.774 139.400 C 9.643 140.500,9.378 141.760,9.185 142.200 C 8.992 142.640,8.639 144.694,8.401 146.764 C 8.163 148.834,7.887 150.660,7.787 150.820 C 7.688 150.981,7.331 154.147,6.995 157.856 C 6.658 161.565,6.222 165.140,6.026 165.800 C 4.659 170.388,4.667 236.242,6.034 240.562 C 6.236 241.202,6.586 244.262,6.810 247.362 C 7.034 250.463,7.414 253.980,7.653 255.177 C 7.893 256.374,8.326 258.984,8.616 260.977 C 9.427 266.555,10.311 271.199,10.982 273.400 C 11.317 274.500,11.591 275.760,11.590 276.200 C 11.589 276.640,11.941 278.170,12.372 279.600 C 12.802 281.030,13.544 283.730,14.020 285.600 C 14.496 287.470,15.226 290.080,15.643 291.400 C 17.601 297.607,19.715 303.913,20.202 305.000 C 20.497 305.660,21.022 306.965,21.369 307.900 C 21.716 308.835,22.278 310.346,22.618 311.258 C 22.958 312.170,23.498 313.290,23.818 313.747 C 24.138 314.204,24.400 314.821,24.400 315.118 C 24.400 316.751,32.750 332.297,37.193 338.938 C 49.045 356.650,67.698 370.800,79.193 370.800 C 79.828 370.800,80.855 370.993,81.474 371.229 C 82.093 371.465,85.120 371.648,88.200 371.635 C 103.433 371.574,115.852 365.601,129.200 351.913 C 135.039 345.925,132.252 346.431,159.466 346.423 C 173.022 346.420,182.715 346.263,183.111 346.042 C 183.798 345.657,183.936 338.918,183.346 334.546 C 182.903 331.259,182.679 331.330,193.682 331.258 C 205.901 331.179,204.900 331.917,204.758 323.087 C 204.635 315.470,204.167 316.014,210.851 316.006 C 217.387 315.998,216.991 316.519,216.975 307.948 C 216.960 299.405,218.110 300.243,206.081 300.000 L 196.200 299.800 196.000 293.067 C 195.818 286.929,195.729 286.282,195.002 285.751 C 194.073 285.073,193.853 285.276,198.500 282.526 C 200.205 281.517,201.600 280.536,201.600 280.346 C 201.600 279.893,200.909 279.900,200.627 280.356 C 200.506 280.552,199.460 281.206,198.303 281.810 C 197.147 282.413,195.771 283.243,195.246 283.653 C 194.721 284.064,194.016 284.400,193.678 284.400 C 193.340 284.400,192.779 284.654,192.431 284.965 C 190.188 286.973,180.962 290.551,172.800 292.578 C 161.500 295.385,157.454 295.596,115.133 295.598 C 95.406 295.599,78.980 295.490,78.631 295.357 C 77.673 294.989,77.669 107.851,78.628 106.482 C 79.280 105.550,78.894 105.266,78.080 106.080 C 77.381 106.779,77.381 294.821,78.080 295.520 C 78.433 295.873,81.929 296.000,91.320 296.000 C 101.725 296.000,104.312 296.109,105.340 296.590 C 106.344 297.060,109.048 297.202,118.667 297.290 C 125.304 297.350,130.850 297.515,130.990 297.656 C 131.214 297.880,130.614 299.925,128.778 305.200 C 126.840 310.771,123.035 319.208,120.571 323.400 C 118.525 326.879,117.783 328.136,117.400 328.773 C 112.210 337.391,102.337 345.125,94.800 346.477 C 82.502 348.683,71.857 341.262,60.526 322.582 C 60.036 321.775,56.349 314.328,55.386 312.200 C 53.533 308.109,52.777 306.254,51.818 303.447 C 51.226 301.713,50.588 300.003,50.400 299.647 C 49.967 298.825,48.874 295.483,48.357 293.400 C 48.139 292.520,47.624 290.810,47.212 289.600 C 46.216 286.672,43.798 277.380,43.204 274.200 C 43.040 273.320,42.703 271.790,42.457 270.800 C 41.629 267.477,39.347 254.322,38.953 250.600 C 38.859 249.720,38.527 246.930,38.214 244.400 C 35.570 223.046,35.475 183.706,38.027 166.800 C 38.243 165.370,38.585 162.490,38.789 160.400 C 38.992 158.310,39.348 155.971,39.579 155.203 C 39.811 154.434,40.000 153.180,40.000 152.417 C 40.000 150.895,41.708 141.099,42.583 137.600 C 42.886 136.390,43.606 133.330,44.184 130.800 C 46.018 122.768,49.170 111.913,50.648 108.540 C 50.952 107.846,51.200 107.086,51.200 106.851 C 51.200 105.585,58.378 89.635,60.494 86.200 C 71.573 68.214,83.071 60.669,96.863 62.337 C 104.923 63.311,113.677 70.431,118.343 79.807 C 120.011 83.157,120.447 83.365,125.171 83.048 C 127.277 82.907,133.374 82.785,138.720 82.778 C 149.764 82.762,149.549 82.834,147.989 79.668 C 141.874 67.259,133.100 57.085,120.400 47.674 C 111.454 41.045,94.560 36.366,85.600 38.036 M114.000 106.014 C 138.932 106.190,149.159 106.393,150.600 106.741 C 151.700 107.007,152.970 107.134,153.422 107.024 C 153.875 106.914,155.135 106.990,156.222 107.194 C 164.607 108.763,168.720 109.310,164.000 108.229 C 154.108 105.964,152.807 105.901,114.800 105.833 L 79.400 105.770 114.000 106.014 M166.466 108.999 C 166.575 109.109,168.000 109.552,169.632 109.984 C 178.823 112.416,191.073 117.757,197.604 122.179 C 199.424 123.411,200.990 124.343,201.084 124.249 C 201.236 124.098,200.037 123.270,195.200 120.186 C 193.050 118.815,186.844 115.618,184.605 114.727 C 179.763 112.800,178.405 112.295,175.200 111.230 C 169.046 109.185,165.830 108.363,166.466 108.999 M115.058 139.399 C 114.076 140.381,114.041 261.709,115.023 263.111 L 115.645 264.000 131.923 263.975 C 166.838 263.921,179.405 259.302,191.535 242.066 C 192.050 241.335,192.406 240.672,192.326 240.593 C 192.247 240.514,191.742 241.113,191.204 241.924 C 182.444 255.141,168.735 261.931,148.200 263.222 C 140.823 263.686,116.009 263.323,115.400 262.742 C 114.920 262.283,114.666 142.845,115.141 141.000 L 115.451 139.800 131.225 139.673 C 150.641 139.517,153.370 139.799,163.600 143.019 C 177.227 147.307,191.774 160.156,195.569 171.256 C 196.159 172.982,197.167 174.751,197.186 174.092 C 197.207 173.330,193.993 166.849,192.610 164.865 C 191.944 163.910,191.208 162.794,190.972 162.383 C 189.023 158.981,181.973 152.098,177.400 149.133 C 175.233 147.728,170.812 145.200,170.522 145.200 C 170.393 145.200,169.548 144.863,168.644 144.451 C 165.233 142.897,164.098 142.489,160.400 141.490 C 151.650 139.125,151.054 139.069,132.758 138.899 C 117.339 138.755,115.654 138.803,115.058 139.399 M197.232 175.086 C 197.215 175.354,197.451 176.164,197.757 176.886 C 199.141 180.147,200.751 187.672,200.821 191.200 C 200.840 192.190,201.023 193.360,201.227 193.800 C 202.139 195.770,200.352 182.939,199.395 180.650 C 199.068 179.867,198.795 178.905,198.790 178.513 C 198.777 177.671,197.280 174.376,197.232 175.086 M201.005 211.500 C 200.533 215.803,199.566 221.717,199.229 222.359 C 199.044 222.712,198.787 223.810,198.657 224.800 C 198.434 226.492,198.444 226.516,198.814 225.200 C 199.031 224.430,199.466 222.900,199.782 221.800 C 200.730 218.499,201.986 209.200,201.484 209.200 C 201.359 209.200,201.144 210.235,201.005 211.500 M197.580 228.300 C 196.447 231.827,193.379 238.642,192.749 239.031 C 192.557 239.150,192.400 239.427,192.400 239.647 C 192.400 241.495,197.217 231.643,198.143 227.900 C 198.545 226.275,198.138 226.564,197.580 228.300 M189.191 288.700 C 189.174 289.283,187.760 290.777,184.203 293.970 L 180.606 297.200 173.703 297.200 C 167.137 297.200,166.800 297.162,166.800 296.424 C 166.800 295.411,167.341 295.094,170.000 294.550 C 175.352 293.455,184.914 290.420,187.600 288.963 C 188.741 288.345,189.204 288.268,189.191 288.700 " stroke="none" fill="#428bc6" fill-rule="evenodd"></path><path id="path1" d="M297.400 37.063 C 290.349 39.107,286.278 40.781,282.600 43.149 C 281.720 43.716,280.594 44.399,280.097 44.668 C 270.598 49.802,256.333 66.519,249.834 80.132 C 247.707 84.589,246.967 84.275,260.069 84.472 C 273.829 84.679,272.763 84.868,274.835 81.859 C 282.311 71.004,289.217 64.829,297.169 61.889 C 300.293 60.734,307.859 60.461,310.178 61.420 C 311.070 61.788,312.517 62.385,313.393 62.745 C 322.730 66.584,332.806 79.624,339.706 96.800 C 342.197 103.001,345.197 111.607,345.202 112.567 C 345.204 112.805,345.487 113.540,345.832 114.200 C 346.177 114.860,346.610 116.120,346.794 117.000 C 347.345 119.633,349.079 126.118,349.556 127.326 C 349.800 127.945,350.000 128.948,350.000 129.555 C 350.000 130.161,350.250 131.455,350.556 132.429 C 350.861 133.403,351.338 135.730,351.614 137.600 C 351.891 139.470,352.361 141.698,352.659 142.550 C 352.956 143.403,353.200 144.856,353.200 145.779 C 353.200 146.702,353.452 148.255,353.759 149.229 C 354.067 150.203,354.534 153.340,354.797 156.200 C 355.060 159.060,355.444 162.030,355.651 162.800 C 355.857 163.570,356.196 166.778,356.405 169.928 C 356.614 173.079,357.009 176.409,357.283 177.328 C 358.000 179.734,357.969 230.635,357.248 233.139 C 356.973 234.095,356.593 237.338,356.403 240.345 C 356.214 243.352,355.879 246.620,355.658 247.606 C 355.438 248.593,355.056 251.290,354.809 253.600 C 354.563 255.910,354.100 258.996,353.781 260.457 C 353.461 261.919,353.200 263.662,353.200 264.331 C 353.200 265.000,353.033 265.988,352.828 266.526 C 352.624 267.064,352.085 269.461,351.631 271.852 C 350.739 276.555,350.318 278.389,349.210 282.400 C 348.816 283.830,348.097 286.530,347.615 288.400 C 347.132 290.270,346.414 292.610,346.020 293.600 C 345.626 294.590,344.723 297.200,344.015 299.400 C 343.306 301.600,342.365 304.300,341.924 305.400 C 341.483 306.500,340.855 308.120,340.530 309.000 C 339.517 311.736,334.863 320.862,332.983 323.800 C 331.997 325.340,330.653 327.721,329.996 329.091 C 329.316 330.508,328.326 331.880,327.700 332.275 C 327.095 332.656,324.883 334.595,322.783 336.584 C 319.085 340.088,316.373 341.766,309.800 344.617 C 305.872 346.320,298.057 346.134,292.800 344.211 C 279.879 339.484,269.402 326.145,262.944 306.200 C 261.086 300.460,261.951 300.803,249.426 300.830 C 237.144 300.856,237.277 300.804,238.651 305.000 C 242.004 315.244,241.558 314.821,249.497 315.293 C 257.453 315.766,256.800 315.017,256.800 323.675 C 256.800 332.359,256.785 332.400,253.586 332.400 C 250.716 332.400,250.632 332.675,252.600 335.600 C 253.370 336.744,254.000 337.754,254.000 337.844 C 254.000 338.460,259.676 345.724,263.600 350.129 C 272.067 359.635,284.233 366.829,297.494 370.171 C 300.835 371.013,312.058 371.047,314.965 370.224 C 316.084 369.906,318.440 369.249,320.200 368.763 C 328.880 366.366,340.929 358.725,348.629 350.735 C 354.351 344.796,360.333 336.944,364.423 330.000 C 365.395 328.350,366.406 326.640,366.670 326.200 C 367.787 324.338,372.829 313.889,374.391 310.200 C 375.322 308.000,376.314 305.750,376.596 305.200 C 376.877 304.650,377.239 303.570,377.400 302.800 C 377.561 302.030,377.838 301.218,378.016 300.996 C 378.194 300.773,379.159 298.073,380.160 294.996 C 381.162 291.918,382.280 288.500,382.645 287.400 C 383.490 284.850,385.019 279.062,385.377 277.060 C 385.528 276.213,385.890 274.953,386.182 274.260 C 386.474 273.567,387.178 270.390,387.745 267.200 C 389.081 259.685,389.083 259.677,389.555 257.800 C 390.287 254.890,391.319 245.976,392.009 236.600 C 392.235 233.520,392.587 229.740,392.790 228.200 C 393.425 223.379,393.295 180.603,392.627 174.800 C 392.310 172.050,391.851 167.370,391.607 164.400 C 391.136 158.658,390.337 152.783,389.406 148.200 C 389.093 146.660,388.373 142.880,387.806 139.800 C 387.238 136.720,386.515 133.300,386.200 132.200 C 385.884 131.100,385.449 129.390,385.232 128.400 C 384.705 125.985,383.370 121.019,382.651 118.800 C 382.331 117.810,381.610 115.560,381.050 113.800 C 379.434 108.720,378.768 106.700,378.216 105.200 C 369.725 82.123,356.742 61.541,344.157 51.207 C 342.421 49.781,340.786 48.411,340.525 48.161 C 336.719 44.524,326.061 39.277,318.200 37.170 C 314.577 36.198,300.630 36.127,297.400 37.063 M203.376 105.367 C 202.231 106.203,202.171 112.673,202.400 210.018 C 202.589 290.541,202.637 295.093,203.309 296.118 L 204.018 297.200 221.309 297.194 C 231.469 297.190,238.847 297.032,239.200 296.810 C 240.174 296.196,240.438 288.185,240.634 253.424 C 240.797 224.528,240.877 221.378,241.469 220.724 C 242.092 220.036,243.914 220.000,278.586 220.000 C 309.535 220.000,315.164 219.914,315.824 219.429 C 316.920 218.623,316.800 189.749,315.697 188.900 C 315.191 188.511,308.272 188.393,284.424 188.370 C 247.222 188.334,242.506 188.220,241.519 187.327 C 240.396 186.310,240.405 139.281,241.529 138.264 C 242.196 137.661,245.842 137.595,283.786 137.502 L 325.314 137.400 326.125 136.313 C 327.195 134.881,327.233 107.335,326.168 105.700 L 325.582 104.800 264.867 104.800 C 213.103 104.800,204.038 104.884,203.376 105.367 " stroke="none" fill="#efab3f" fill-rule="evenodd"></path><path id="path2" d="M103.409 0.289 C 100.114 0.362,97.243 0.597,97.029 0.811 C 96.815 1.025,95.056 1.200,93.120 1.200 C 91.040 1.200,89.600 1.364,89.600 1.600 C 89.600 1.829,88.400 2.000,86.800 2.000 C 85.200 2.000,84.000 2.171,84.000 2.400 C 84.000 2.620,83.111 2.800,82.024 2.800 C 80.937 2.800,79.936 2.980,79.800 3.200 C 79.664 3.420,78.854 3.600,78.000 3.600 C 77.146 3.600,76.336 3.780,76.200 4.000 C 76.064 4.220,75.333 4.400,74.576 4.400 C 73.819 4.400,73.200 4.580,73.200 4.800 C 73.200 5.020,72.480 5.200,71.600 5.200 C 70.720 5.200,70.000 5.380,70.000 5.600 C 70.000 5.820,69.460 6.000,68.800 6.000 C 68.140 6.000,67.600 6.180,67.600 6.400 C 67.600 6.620,67.060 6.800,66.400 6.800 C 65.740 6.800,65.200 6.980,65.200 7.200 C 65.200 7.420,64.660 7.600,64.000 7.600 C 63.340 7.600,62.800 7.780,62.800 8.000 C 62.800 8.220,62.395 8.401,61.900 8.402 C 61.405 8.404,60.484 8.674,59.854 9.002 C 59.224 9.331,58.459 9.600,58.154 9.600 C 57.849 9.600,57.600 9.780,57.600 10.000 C 57.600 10.220,57.240 10.400,56.800 10.400 C 56.360 10.400,56.000 10.580,56.000 10.800 C 56.000 11.020,55.640 11.200,55.200 11.200 C 54.760 11.200,54.400 11.380,54.400 11.600 C 54.400 11.820,54.040 12.000,53.600 12.000 C 53.160 12.000,52.800 12.180,52.800 12.400 C 52.800 12.620,52.440 12.800,52.000 12.800 C 51.560 12.800,51.200 12.980,51.200 13.200 C 51.200 13.420,50.840 13.600,50.400 13.600 C 49.960 13.600,49.600 13.780,49.600 14.000 C 49.600 14.220,49.364 14.400,49.075 14.400 C 48.787 14.400,48.164 14.760,47.692 15.200 C 47.220 15.640,46.622 16.000,46.364 16.000 C 46.105 16.000,45.603 16.316,45.247 16.703 C 44.891 17.089,44.105 17.660,43.500 17.970 C 42.895 18.281,42.400 18.685,42.400 18.868 C 42.400 19.050,42.220 19.200,42.000 19.200 C 41.781 19.200,40.859 19.920,39.952 20.800 C 39.045 21.680,38.152 22.400,37.967 22.400 C 37.030 22.400,22.400 37.030,22.400 37.967 C 22.400 38.152,21.680 39.045,20.800 39.952 C 19.920 40.859,19.200 41.781,19.200 42.000 C 19.200 42.220,19.050 42.400,18.868 42.400 C 18.685 42.400,18.281 42.895,17.970 43.500 C 17.660 44.105,17.089 44.891,16.703 45.247 C 16.316 45.603,16.000 46.105,16.000 46.364 C 16.000 46.622,15.640 47.220,15.200 47.692 C 14.760 48.164,14.400 48.787,14.400 49.075 C 14.400 49.364,14.220 49.600,14.000 49.600 C 13.780 49.600,13.600 49.960,13.600 50.400 C 13.600 50.840,13.420 51.200,13.200 51.200 C 12.980 51.200,12.800 51.560,12.800 52.000 C 12.800 52.440,12.620 52.800,12.400 52.800 C 12.180 52.800,12.000 53.160,12.000 53.600 C 12.000 54.040,11.820 54.400,11.600 54.400 C 11.380 54.400,11.200 54.760,11.200 55.200 C 11.200 55.640,11.020 56.000,10.800 56.000 C 10.580 56.000,10.400 56.360,10.400 56.800 C 10.400 57.240,10.220 57.600,10.000 57.600 C 9.780 57.600,9.600 57.849,9.600 58.154 C 9.600 58.459,9.331 59.224,9.002 59.854 C 8.674 60.484,8.404 61.405,8.402 61.900 C 8.401 62.395,8.220 62.800,8.000 62.800 C 7.780 62.800,7.600 63.340,7.600 64.000 C 7.600 64.660,7.420 65.200,7.200 65.200 C 6.980 65.200,6.800 65.740,6.800 66.400 C 6.800 67.060,6.620 67.600,6.400 67.600 C 6.180 67.600,6.000 68.140,6.000 68.800 C 6.000 69.460,5.820 70.000,5.600 70.000 C 5.380 70.000,5.200 70.720,5.200 71.600 C 5.200 72.480,5.020 73.200,4.800 73.200 C 4.580 73.200,4.400 73.819,4.400 74.576 C 4.400 75.333,4.220 76.064,4.000 76.200 C 3.780 76.336,3.600 77.146,3.600 78.000 C 3.600 78.854,3.420 79.664,3.200 79.800 C 2.980 79.936,2.800 80.937,2.800 82.024 C 2.800 83.111,2.620 84.000,2.400 84.000 C 2.171 84.000,2.000 85.200,2.000 86.800 C 2.000 88.400,1.829 89.600,1.600 89.600 C 1.364 89.600,1.200 91.040,1.200 93.120 C 1.200 95.403,1.024 96.816,0.700 97.140 C -0.035 97.875,-0.035 302.125,0.700 302.860 C 1.024 303.184,1.200 304.597,1.200 306.880 C 1.200 308.960,1.364 310.400,1.600 310.400 C 1.829 310.400,2.000 311.600,2.000 313.200 C 2.000 314.800,2.171 316.000,2.400 316.000 C 2.620 316.000,2.800 316.889,2.800 317.976 C 2.800 319.063,2.980 320.064,3.200 320.200 C 3.420 320.336,3.600 321.146,3.600 322.000 C 3.600 322.854,3.780 323.664,4.000 323.800 C 4.220 323.936,4.400 324.667,4.400 325.424 C 4.400 326.181,4.580 326.800,4.800 326.800 C 5.020 326.800,5.200 327.520,5.200 328.400 C 5.200 329.280,5.380 330.000,5.600 330.000 C 5.820 330.000,6.000 330.540,6.000 331.200 C 6.000 331.860,6.180 332.400,6.400 332.400 C 6.620 332.400,6.800 332.940,6.800 333.600 C 6.800 334.260,6.980 334.800,7.200 334.800 C 7.420 334.800,7.600 335.340,7.600 336.000 C 7.600 336.660,7.780 337.200,8.000 337.200 C 8.220 337.200,8.401 337.605,8.402 338.100 C 8.404 338.595,8.674 339.516,9.002 340.146 C 9.331 340.776,9.600 341.541,9.600 341.846 C 9.600 342.151,9.780 342.400,10.000 342.400 C 10.220 342.400,10.400 342.760,10.400 343.200 C 10.400 343.640,10.580 344.000,10.800 344.000 C 11.020 344.000,11.200 344.360,11.200 344.800 C 11.200 345.240,11.380 345.600,11.600 345.600 C 11.820 345.600,12.000 345.960,12.000 346.400 C 12.000 346.840,12.180 347.200,12.400 347.200 C 12.620 347.200,12.800 347.560,12.800 348.000 C 12.800 348.440,12.980 348.800,13.200 348.800 C 13.420 348.800,13.600 349.160,13.600 349.600 C 13.600 350.040,13.780 350.400,14.000 350.400 C 14.220 350.400,14.400 350.636,14.400 350.925 C 14.400 351.213,14.760 351.836,15.200 352.308 C 15.640 352.780,16.000 353.378,16.000 353.636 C 16.000 353.895,16.316 354.397,16.703 354.753 C 17.089 355.109,17.660 355.895,17.970 356.500 C 18.281 357.105,18.685 357.600,18.868 357.600 C 19.050 357.600,19.200 357.780,19.200 358.000 C 19.200 358.219,19.920 359.141,20.800 360.048 C 21.680 360.955,22.400 361.848,22.400 362.033 C 22.400 362.970,37.030 377.600,37.967 377.600 C 38.152 377.600,39.045 378.320,39.952 379.200 C 40.859 380.080,41.781 380.800,42.000 380.800 C 42.220 380.800,42.400 380.950,42.400 381.132 C 42.400 381.315,42.895 381.719,43.500 382.030 C 44.105 382.340,44.891 382.911,45.247 383.297 C 45.603 383.684,46.105 384.000,46.364 384.000 C 46.622 384.000,47.220 384.360,47.692 384.800 C 48.164 385.240,48.787 385.600,49.075 385.600 C 49.364 385.600,49.600 385.780,49.600 386.000 C 49.600 386.220,49.960 386.400,50.400 386.400 C 50.840 386.400,51.200 386.580,51.200 386.800 C 51.200 387.020,51.560 387.200,52.000 387.200 C 52.440 387.200,52.800 387.380,52.800 387.600 C 52.800 387.820,53.160 388.000,53.600 388.000 C 54.040 388.000,54.400 388.180,54.400 388.400 C 54.400 388.620,54.760 388.800,55.200 388.800 C 55.640 388.800,56.000 388.980,56.000 389.200 C 56.000 389.420,56.360 389.600,56.800 389.600 C 57.240 389.600,57.600 389.780,57.600 390.000 C 57.600 390.220,57.849 390.400,58.154 390.400 C 58.459 390.400,59.224 390.669,59.854 390.998 C 60.484 391.326,61.405 391.596,61.900 391.598 C 62.395 391.599,62.800 391.780,62.800 392.000 C 62.800 392.220,63.340 392.400,64.000 392.400 C 64.660 392.400,65.200 392.580,65.200 392.800 C 65.200 393.020,65.740 393.200,66.400 393.200 C 67.060 393.200,67.600 393.380,67.600 393.600 C 67.600 393.820,68.140 394.000,68.800 394.000 C 69.460 394.000,70.000 394.180,70.000 394.400 C 70.000 394.620,70.720 394.800,71.600 394.800 C 72.480 394.800,73.200 394.980,73.200 395.200 C 73.200 395.420,73.819 395.600,74.576 395.600 C 75.333 395.600,76.064 395.780,76.200 396.000 C 76.336 396.220,77.146 396.400,78.000 396.400 C 78.854 396.400,79.664 396.580,79.800 396.800 C 79.936 397.020,80.937 397.200,82.024 397.200 C 83.111 397.200,84.000 397.380,84.000 397.600 C 84.000 397.829,85.200 398.000,86.800 398.000 C 88.400 398.000,89.600 398.171,89.600 398.400 C 89.600 398.636,91.040 398.800,93.120 398.800 C 95.403 398.800,96.816 398.976,97.140 399.300 C 97.537 399.697,118.645 399.800,200.000 399.800 C 281.355 399.800,302.463 399.697,302.860 399.300 C 303.184 398.976,304.597 398.800,306.880 398.800 C 308.960 398.800,310.400 398.636,310.400 398.400 C 310.400 398.171,311.600 398.000,313.200 398.000 C 314.800 398.000,316.000 397.829,316.000 397.600 C 316.000 397.380,316.889 397.200,317.976 397.200 C 319.063 397.200,320.064 397.020,320.200 396.800 C 320.336 396.580,321.146 396.400,322.000 396.400 C 322.854 396.400,323.664 396.220,323.800 396.000 C 323.936 395.780,324.667 395.600,325.424 395.600 C 326.181 395.600,326.800 395.420,326.800 395.200 C 326.800 394.980,327.520 394.800,328.400 394.800 C 329.280 394.800,330.000 394.620,330.000 394.400 C 330.000 394.180,330.540 394.000,331.200 394.000 C 331.860 394.000,332.400 393.820,332.400 393.600 C 332.400 393.380,332.940 393.200,333.600 393.200 C 334.260 393.200,334.800 393.020,334.800 392.800 C 334.800 392.580,335.340 392.400,336.000 392.400 C 336.660 392.400,337.200 392.220,337.200 392.000 C 337.200 391.780,337.605 391.599,338.100 391.598 C 338.595 391.596,339.516 391.326,340.146 390.998 C 340.776 390.669,341.541 390.400,341.846 390.400 C 342.151 390.400,342.400 390.220,342.400 390.000 C 342.400 389.780,342.760 389.600,343.200 389.600 C 343.640 389.600,344.000 389.420,344.000 389.200 C 344.000 388.980,344.360 388.800,344.800 388.800 C 345.240 388.800,345.600 388.620,345.600 388.400 C 345.600 388.180,345.960 388.000,346.400 388.000 C 346.840 388.000,347.200 387.820,347.200 387.600 C 347.200 387.380,347.560 387.200,348.000 387.200 C 348.440 387.200,348.800 387.020,348.800 386.800 C 348.800 386.580,349.160 386.400,349.600 386.400 C 350.040 386.400,350.400 386.220,350.400 386.000 C 350.400 385.780,350.636 385.600,350.925 385.600 C 351.213 385.600,351.836 385.240,352.308 384.800 C 352.780 384.360,353.378 384.000,353.636 384.000 C 353.895 384.000,354.397 383.684,354.753 383.297 C 355.109 382.911,355.895 382.340,356.500 382.030 C 357.105 381.719,357.600 381.315,357.600 381.132 C 357.600 380.950,357.780 380.800,358.000 380.800 C 358.219 380.800,359.141 380.080,360.048 379.200 C 360.955 378.320,361.848 377.600,362.033 377.600 C 362.970 377.600,377.600 362.970,377.600 362.033 C 377.600 361.848,378.320 360.955,379.200 360.048 C 380.080 359.141,380.800 358.219,380.800 358.000 C 380.800 357.780,380.950 357.600,381.132 357.600 C 381.315 357.600,381.719 357.105,382.030 356.500 C 382.340 355.895,382.911 355.109,383.297 354.753 C 383.684 354.397,384.000 353.895,384.000 353.636 C 384.000 353.378,384.360 352.780,384.800 352.308 C 385.240 351.836,385.600 351.213,385.600 350.925 C 385.600 350.636,385.780 350.400,386.000 350.400 C 386.220 350.400,386.400 350.040,386.400 349.600 C 386.400 349.160,386.580 348.800,386.800 348.800 C 387.020 348.800,387.200 348.440,387.200 348.000 C 387.200 347.560,387.380 347.200,387.600 347.200 C 387.820 347.200,388.000 346.840,388.000 346.400 C 388.000 345.960,388.180 345.600,388.400 345.600 C 388.620 345.600,388.800 345.240,388.800 344.800 C 388.800 344.360,388.980 344.000,389.200 344.000 C 389.420 344.000,389.600 343.640,389.600 343.200 C 389.600 342.760,389.780 342.400,390.000 342.400 C 390.220 342.400,390.400 342.151,390.400 341.846 C 390.400 341.541,390.669 340.776,390.998 340.146 C 391.326 339.516,391.596 338.595,391.598 338.100 C 391.599 337.605,391.780 337.200,392.000 337.200 C 392.220 337.200,392.400 336.660,392.400 336.000 C 392.400 335.340,392.580 334.800,392.800 334.800 C 393.020 334.800,393.200 334.260,393.200 333.600 C 393.200 332.940,393.380 332.400,393.600 332.400 C 393.820 332.400,394.000 331.860,394.000 331.200 C 394.000 330.540,394.180 330.000,394.400 330.000 C 394.620 330.000,394.800 329.280,394.800 328.400 C 394.800 327.520,394.980 326.800,395.200 326.800 C 395.420 326.800,395.600 326.181,395.600 325.424 C 395.600 324.667,395.780 323.936,396.000 323.800 C 396.220 323.664,396.400 322.854,396.400 322.000 C 396.400 321.146,396.580 320.336,396.800 320.200 C 397.020 320.064,397.200 319.063,397.200 317.976 C 397.200 316.889,397.380 316.000,397.600 316.000 C 397.829 316.000,398.000 314.800,398.000 313.200 C 398.000 311.600,398.171 310.400,398.400 310.400 C 398.636 310.400,398.800 308.960,398.800 306.880 C 398.800 304.597,398.976 303.184,399.300 302.860 C 399.697 302.463,399.800 281.355,399.800 200.000 C 399.800 118.645,399.697 97.537,399.300 97.140 C 398.976 96.816,398.800 95.403,398.800 93.120 C 398.800 91.040,398.636 89.600,398.400 89.600 C 398.171 89.600,398.000 88.400,398.000 86.800 C 398.000 85.200,397.829 84.000,397.600 84.000 C 397.380 84.000,397.200 83.111,397.200 82.024 C 397.200 80.937,397.020 79.936,396.800 79.800 C 396.580 79.664,396.400 78.854,396.400 78.000 C 396.400 77.146,396.220 76.336,396.000 76.200 C 395.780 76.064,395.600 75.333,395.600 74.576 C 395.600 73.819,395.420 73.200,395.200 73.200 C 394.980 73.200,394.800 72.480,394.800 71.600 C 394.800 70.720,394.620 70.000,394.400 70.000 C 394.180 70.000,394.000 69.460,394.000 68.800 C 394.000 68.140,393.820 67.600,393.600 67.600 C 393.380 67.600,393.200 67.060,393.200 66.400 C 393.200 65.740,393.020 65.200,392.800 65.200 C 392.580 65.200,392.400 64.660,392.400 64.000 C 392.400 63.340,392.220 62.800,392.000 62.800 C 391.780 62.800,391.599 62.395,391.598 61.900 C 391.596 61.405,391.326 60.484,390.998 59.854 C 390.669 59.224,390.400 58.459,390.400 58.154 C 390.400 57.849,390.220 57.600,390.000 57.600 C 389.780 57.600,389.600 57.240,389.600 56.800 C 389.600 56.360,389.420 56.000,389.200 56.000 C 388.980 56.000,388.800 55.640,388.800 55.200 C 388.800 54.760,388.620 54.400,388.400 54.400 C 388.180 54.400,388.000 54.040,388.000 53.600 C 388.000 53.160,387.820 52.800,387.600 52.800 C 387.380 52.800,387.200 52.440,387.200 52.000 C 387.200 51.560,387.020 51.200,386.800 51.200 C 386.580 51.200,386.400 50.840,386.400 50.400 C 386.400 49.960,386.220 49.600,386.000 49.600 C 385.780 49.600,385.600 49.364,385.600 49.075 C 385.600 48.787,385.240 48.164,384.800 47.692 C 384.360 47.220,384.000 46.622,384.000 46.364 C 384.000 46.105,383.684 45.603,383.297 45.247 C 382.911 44.891,382.340 44.105,382.030 43.500 C 381.719 42.895,381.315 42.400,381.132 42.400 C 380.950 42.400,380.800 42.220,380.800 42.000 C 380.800 41.781,380.080 40.859,379.200 39.952 C 378.320 39.045,377.600 38.152,377.600 37.967 C 377.600 37.030,362.970 22.400,362.033 22.400 C 361.848 22.400,360.955 21.680,360.048 20.800 C 359.141 19.920,358.219 19.200,358.000 19.200 C 357.780 19.200,357.600 19.050,357.600 18.868 C 357.600 18.685,357.105 18.281,356.500 17.970 C 355.895 17.660,355.109 17.089,354.753 16.703 C 354.397 16.316,353.895 16.000,353.636 16.000 C 353.378 16.000,352.780 15.640,352.308 15.200 C 351.836 14.760,351.213 14.400,350.925 14.400 C 350.636 14.400,350.400 14.220,350.400 14.000 C 350.400 13.780,350.040 13.600,349.600 13.600 C 349.160 13.600,348.800 13.420,348.800 13.200 C 348.800 12.980,348.440 12.800,348.000 12.800 C 347.560 12.800,347.200 12.620,347.200 12.400 C 347.200 12.180,346.840 12.000,346.400 12.000 C 345.960 12.000,345.600 11.820,345.600 11.600 C 345.600 11.380,345.240 11.200,344.800 11.200 C 344.360 11.200,344.000 11.020,344.000 10.800 C 344.000 10.580,343.640 10.400,343.200 10.400 C 342.760 10.400,342.400 10.220,342.400 10.000 C 342.400 9.780,342.151 9.600,341.846 9.600 C 341.541 9.600,340.776 9.331,340.146 9.002 C 339.516 8.674,338.595 8.404,338.100 8.402 C 337.605 8.401,337.200 8.220,337.200 8.000 C 337.200 7.780,336.660 7.600,336.000 7.600 C 335.340 7.600,334.800 7.420,334.800 7.200 C 334.800 6.980,334.260 6.800,333.600 6.800 C 332.940 6.800,332.400 6.620,332.400 6.400 C 332.400 6.180,331.860 6.000,331.200 6.000 C 330.540 6.000,330.000 5.820,330.000 5.600 C 330.000 5.380,329.280 5.200,328.400 5.200 C 327.520 5.200,326.800 5.020,326.800 4.800 C 326.800 4.580,326.181 4.400,325.424 4.400 C 324.667 4.400,323.936 4.220,323.800 4.000 C 323.664 3.780,322.854 3.600,322.000 3.600 C 321.146 3.600,320.336 3.420,320.200 3.200 C 320.064 2.980,319.063 2.800,317.976 2.800 C 316.889 2.800,316.000 2.620,316.000 2.400 C 316.000 2.171,314.800 2.000,313.200 2.000 C 311.600 2.000,310.400 1.829,310.400 1.600 C 310.400 1.364,308.960 1.200,306.880 1.200 C 304.597 1.200,303.184 1.024,302.860 0.700 C 302.394 0.234,122.468 -0.137,103.409 0.289 M96.200 36.968 C 111.489 38.917,126.189 47.914,138.800 63.042 C 140.622 65.227,144.826 71.405,146.465 74.307 C 152.503 84.991,153.190 84.400,134.737 84.400 C 118.583 84.400,119.431 84.579,117.437 80.741 C 113.098 72.391,107.452 67.211,99.800 64.560 C 97.459 63.749,89.424 63.316,88.649 63.960 C 88.377 64.185,87.129 64.637,85.875 64.964 C 84.622 65.290,83.197 65.837,82.709 66.179 C 82.221 66.520,81.599 66.800,81.327 66.800 C 78.501 66.800,63.600 81.528,63.600 84.322 C 63.600 84.517,63.240 85.002,62.800 85.400 C 62.360 85.798,62.000 86.428,62.000 86.800 C 62.000 87.172,61.640 87.802,61.200 88.200 C 60.760 88.598,60.400 89.222,60.400 89.587 C 60.400 89.951,60.061 90.613,59.646 91.058 C 59.232 91.503,58.770 92.424,58.621 93.106 C 58.471 93.787,58.090 94.559,57.774 94.821 C 57.458 95.083,57.196 95.681,57.191 96.149 C 57.186 96.617,56.830 97.450,56.400 98.000 C 55.970 98.550,55.613 99.360,55.606 99.800 C 55.600 100.240,55.237 101.140,54.800 101.800 C 54.363 102.460,54.004 103.340,54.003 103.756 C 54.001 104.172,53.665 105.252,53.256 106.156 C 52.579 107.650,52.219 108.595,51.178 111.600 C 50.328 114.058,49.516 116.740,49.122 118.394 C 48.887 119.381,48.466 120.551,48.186 120.994 C 47.905 121.437,47.555 122.790,47.407 124.000 C 47.259 125.210,46.792 127.152,46.369 128.315 C 45.946 129.478,45.600 130.936,45.600 131.554 C 45.600 132.171,45.342 133.200,45.027 133.839 C 44.712 134.477,44.254 136.485,44.008 138.300 C 43.763 140.114,43.302 142.454,42.985 143.500 C 42.668 144.545,42.407 146.264,42.404 147.320 C 42.402 148.376,42.140 149.742,41.822 150.357 C 41.505 150.971,41.131 152.897,40.991 154.637 C 40.852 156.377,40.465 159.600,40.131 161.800 C 39.798 164.000,39.377 168.410,39.195 171.600 C 39.014 174.790,38.637 178.120,38.357 179.000 C 37.600 181.378,37.578 229.047,38.332 231.600 C 38.624 232.590,39.026 235.830,39.225 238.800 C 39.424 241.770,39.775 245.460,40.005 247.000 C 40.235 248.540,40.568 251.600,40.746 253.800 C 40.924 256.000,41.368 258.497,41.734 259.349 C 42.101 260.201,42.400 261.587,42.400 262.429 C 42.400 263.272,42.676 265.005,43.014 266.280 C 43.351 267.556,43.797 269.906,44.004 271.501 C 44.211 273.097,44.655 274.933,44.990 275.581 C 45.326 276.230,45.600 277.315,45.600 277.993 C 45.600 278.671,45.863 279.855,46.185 280.625 C 46.506 281.394,46.961 283.143,47.197 284.512 C 47.432 285.880,47.868 287.630,48.165 288.400 C 48.463 289.170,49.194 291.420,49.789 293.400 C 50.385 295.380,51.126 297.591,51.436 298.314 C 51.746 299.036,52.000 299.811,52.000 300.036 C 52.000 300.260,52.347 301.205,52.771 302.136 C 53.195 303.066,53.670 304.362,53.826 305.014 C 53.982 305.666,54.263 306.396,54.450 306.635 C 54.637 306.874,55.042 307.774,55.351 308.635 C 55.940 310.275,58.535 316.100,59.210 317.296 C 59.426 317.679,60.242 319.198,61.023 320.671 C 61.804 322.143,62.974 324.134,63.622 325.094 C 64.270 326.054,64.800 326.938,64.800 327.057 C 64.800 327.612,70.578 334.848,72.663 336.905 C 89.272 353.292,108.612 345.894,122.085 318.000 C 125.232 311.486,126.400 308.699,126.400 307.706 C 126.400 307.296,126.599 306.761,126.842 306.518 C 127.294 306.066,128.310 302.182,128.678 299.500 L 128.884 298.000 111.342 297.970 C 101.694 297.953,90.309 297.805,86.042 297.642 L 78.283 297.345 77.331 296.238 L 76.378 295.130 76.489 200.579 C 76.595 110.433,76.633 105.995,77.314 105.314 C 78.938 103.690,149.046 104.126,157.200 105.811 C 158.630 106.106,160.700 106.461,161.800 106.600 C 162.900 106.738,164.340 107.006,165.000 107.194 C 165.660 107.383,167.730 107.937,169.600 108.426 C 179.063 110.899,189.822 115.399,196.207 119.554 C 202.817 123.856,202.386 124.236,202.394 114.100 C 202.400 106.938,202.456 106.344,203.200 105.600 C 203.993 104.807,204.533 104.800,264.791 104.800 L 325.582 104.800 326.168 105.700 C 327.233 107.335,327.195 134.881,326.125 136.313 L 325.314 137.400 283.786 137.502 C 245.842 137.595,242.196 137.661,241.529 138.264 C 240.405 139.281,240.396 186.310,241.519 187.327 C 242.506 188.220,247.222 188.334,284.424 188.370 C 308.272 188.393,315.191 188.511,315.697 188.900 C 316.800 189.749,316.920 218.623,315.824 219.429 C 315.165 219.914,309.544 220.000,278.655 220.000 C 245.353 220.000,242.201 220.056,241.531 220.662 C 240.835 221.293,240.800 222.822,240.800 253.044 L 240.800 284.764 242.100 285.000 C 243.330 285.224,256.975 285.074,279.458 284.590 C 292.030 284.319,290.800 283.407,290.800 293.000 C 290.800 302.636,292.587 301.600,275.959 301.600 C 264.502 301.600,262.340 301.690,262.154 302.176 C 261.708 303.338,265.169 312.668,268.755 319.972 C 271.744 326.058,271.794 326.145,274.338 329.600 C 279.218 336.227,288.943 343.925,292.514 343.987 C 292.907 343.994,293.627 344.247,294.114 344.550 C 296.529 346.048,307.479 346.200,309.405 344.762 C 309.628 344.596,310.820 344.082,312.055 343.620 C 316.204 342.068,326.000 334.571,326.000 332.948 C 326.000 332.502,324.459 332.399,317.700 332.393 C 300.906 332.378,288.648 331.946,287.962 331.346 C 287.089 330.583,287.078 316.911,287.949 315.861 C 288.610 315.065,327.362 314.831,328.826 315.614 C 329.511 315.981,329.603 316.497,329.623 320.114 C 329.636 322.361,329.771 324.890,329.923 325.734 L 330.200 327.267 331.083 326.326 C 332.375 324.949,335.769 319.190,337.996 314.597 C 339.817 310.842,340.258 309.792,341.818 305.500 C 342.158 304.565,342.679 303.260,342.975 302.600 C 343.272 301.940,343.915 300.050,344.405 298.400 C 344.895 296.750,345.620 294.590,346.016 293.600 C 346.413 292.610,347.132 290.270,347.615 288.400 C 348.097 286.530,348.816 283.830,349.210 282.400 C 350.318 278.389,350.739 276.555,351.631 271.852 C 352.085 269.461,352.624 267.064,352.828 266.526 C 353.033 265.988,353.200 265.000,353.200 264.331 C 353.200 263.662,353.461 261.919,353.781 260.457 C 354.100 258.996,354.563 255.910,354.809 253.600 C 355.056 251.290,355.438 248.593,355.658 247.606 C 355.879 246.620,356.214 243.352,356.403 240.345 C 356.593 237.338,356.973 234.095,357.248 233.139 C 357.969 230.635,358.000 179.734,357.283 177.328 C 357.009 176.409,356.614 173.079,356.405 169.928 C 356.196 166.778,355.857 163.570,355.651 162.800 C 355.444 162.030,355.060 159.060,354.797 156.200 C 354.534 153.340,354.067 150.203,353.759 149.229 C 353.452 148.255,353.200 146.702,353.200 145.779 C 353.200 144.856,352.956 143.403,352.659 142.550 C 352.361 141.698,351.891 139.470,351.614 137.600 C 351.338 135.730,350.861 133.403,350.556 132.429 C 350.250 131.455,350.000 130.161,350.000 129.555 C 350.000 128.948,349.800 127.945,349.556 127.326 C 349.079 126.118,347.345 119.633,346.794 117.000 C 346.610 116.120,346.177 114.860,345.832 114.200 C 345.487 113.540,345.204 112.805,345.202 112.567 C 345.197 111.607,342.197 103.001,339.706 96.800 C 332.743 79.468,322.783 66.640,313.193 62.655 C 312.207 62.245,310.760 61.649,309.978 61.329 C 307.800 60.440,300.117 60.800,297.025 61.936 C 289.296 64.775,282.234 71.115,274.835 81.859 C 272.763 84.868,273.829 84.679,260.069 84.472 C 246.967 84.275,247.707 84.589,249.834 80.132 C 256.333 66.519,270.598 49.802,280.097 44.668 C 280.594 44.399,281.782 43.676,282.738 43.061 C 295.962 34.548,314.540 33.931,329.800 41.498 C 333.041 43.105,339.309 46.999,340.525 48.161 C 340.786 48.411,342.421 49.781,344.157 51.207 C 353.169 58.607,364.183 73.799,370.977 88.200 C 375.548 97.888,377.253 102.009,379.008 107.600 C 379.319 108.590,380.044 110.750,380.619 112.400 C 382.194 116.917,384.440 124.701,385.238 128.400 C 385.451 129.390,385.884 131.100,386.200 132.200 C 386.515 133.300,387.238 136.720,387.806 139.800 C 388.373 142.880,389.093 146.660,389.406 148.200 C 390.337 152.783,391.136 158.658,391.607 164.400 C 391.851 167.370,392.310 172.050,392.627 174.800 C 393.295 180.603,393.425 223.379,392.790 228.200 C 392.587 229.740,392.235 233.520,392.009 236.600 C 391.319 245.976,390.287 254.890,389.555 257.800 C 389.083 259.677,389.081 259.685,387.745 267.200 C 387.178 270.390,386.474 273.567,386.182 274.260 C 385.890 274.953,385.528 276.213,385.377 277.060 C 385.019 279.062,383.490 284.850,382.645 287.400 C 382.280 288.500,381.162 291.918,380.160 294.996 C 379.159 298.073,378.194 300.773,378.016 300.996 C 377.838 301.218,377.561 302.030,377.400 302.800 C 377.239 303.570,376.877 304.650,376.596 305.200 C 376.314 305.750,375.322 308.000,374.391 310.200 C 372.829 313.889,367.787 324.338,366.670 326.200 C 366.406 326.640,365.395 328.350,364.423 330.000 C 353.033 349.336,335.779 364.460,320.200 368.763 C 318.440 369.249,316.084 369.906,314.965 370.224 C 312.058 371.047,300.835 371.013,297.494 370.171 C 282.170 366.309,271.316 359.267,259.619 345.600 C 257.962 343.664,254.167 338.568,252.243 335.695 C 249.823 332.081,251.479 332.357,233.000 332.489 L 217.400 332.600 217.200 339.687 C 217.043 345.264,216.872 346.898,216.400 347.359 C 215.886 347.860,209.985 347.991,175.200 348.272 L 134.600 348.600 132.800 350.559 C 131.053 352.459,128.092 355.360,125.953 357.267 C 125.377 357.780,124.202 358.830,123.343 359.600 C 112.062 369.705,94.503 375.476,82.461 373.036 C 80.733 372.686,78.831 372.400,78.234 372.400 C 77.636 372.400,76.786 372.207,76.345 371.971 C 75.904 371.735,74.549 371.282,73.333 370.966 C 68.408 369.683,60.577 365.262,54.468 360.315 C 51.577 357.974,43.214 349.687,43.204 349.154 C 43.202 349.019,42.652 348.299,41.983 347.554 C 41.314 346.809,40.103 345.210,39.292 344.000 C 38.481 342.790,37.604 341.578,37.344 341.306 C 37.083 341.035,35.909 339.270,34.735 337.384 C 31.786 332.648,31.290 331.798,29.609 328.600 C 28.800 327.060,27.929 325.440,27.675 325.000 C 26.889 323.642,22.712 314.658,22.375 313.600 C 22.199 313.050,21.485 311.250,20.788 309.600 C 18.660 304.565,15.748 296.109,13.969 289.800 C 13.783 289.140,12.977 285.990,12.178 282.800 C 11.379 279.610,10.546 276.460,10.326 275.800 C 9.801 274.219,8.953 269.949,8.182 265.000 C 7.839 262.800,7.298 259.890,6.979 258.534 C 6.661 257.178,6.400 255.340,6.400 254.450 C 6.400 253.560,6.131 251.070,5.801 248.916 C 5.275 245.474,4.758 239.867,3.597 225.000 C 3.184 219.707,3.185 189.203,3.599 182.600 C 4.441 169.165,5.820 155.412,6.867 150.000 C 7.101 148.790,7.444 146.540,7.629 145.000 C 7.814 143.460,8.140 141.300,8.353 140.200 C 8.565 139.100,9.026 136.676,9.376 134.814 C 9.726 132.952,10.189 131.251,10.406 131.034 C 10.623 130.817,10.800 130.214,10.800 129.694 C 10.800 128.696,12.510 121.442,13.227 119.400 C 13.458 118.740,13.978 117.030,14.382 115.600 C 16.176 109.242,16.435 108.424,16.999 107.344 C 17.327 106.715,17.596 105.806,17.598 105.324 C 17.599 104.842,17.760 104.348,17.956 104.227 C 18.151 104.106,18.434 103.511,18.584 102.904 C 18.733 102.297,19.293 100.765,19.828 99.500 C 20.363 98.235,21.273 96.075,21.852 94.700 C 23.959 89.692,29.613 78.641,31.247 76.338 C 31.661 75.754,32.000 75.183,32.000 75.070 C 32.000 74.956,32.766 73.720,33.703 72.323 C 50.853 46.747,73.300 34.049,96.200 36.968 M131.094 141.494 C 126.483 141.602,125.378 141.750,124.294 142.406 C 123.582 142.837,122.629 143.355,122.175 143.557 C 121.721 143.758,120.821 144.599,120.175 145.424 C 119.529 146.250,118.562 147.457,118.026 148.108 C 117.200 149.112,117.006 149.903,116.747 153.345 C 116.357 158.525,116.322 260.445,116.710 261.061 C 117.515 262.339,152.142 262.492,157.800 261.242 C 158.680 261.048,160.390 260.672,161.600 260.407 C 177.255 256.980,191.188 245.313,195.157 232.310 C 195.377 231.590,196.033 229.740,196.616 228.200 C 197.198 226.660,197.919 224.140,198.218 222.600 C 198.517 221.060,199.032 218.549,199.363 217.019 C 201.337 207.881,199.989 183.426,197.215 178.059 C 197.027 177.696,196.327 175.960,195.659 174.200 C 190.911 161.696,179.020 149.835,167.381 145.994 C 166.579 145.729,165.445 145.263,164.861 144.959 C 164.278 144.654,163.435 144.404,162.989 144.402 C 162.543 144.401,161.823 144.157,161.389 143.859 C 160.955 143.562,159.610 143.183,158.400 143.018 C 157.190 142.852,155.300 142.595,154.200 142.447 C 153.100 142.298,152.020 142.067,151.800 141.933 C 151.270 141.612,138.034 141.331,131.094 141.494 M220.149 302.100 C 219.957 302.375,219.890 305.300,220.000 308.600 L 220.200 314.600 223.200 314.848 C 224.850 314.984,229.463 315.119,233.451 315.148 C 241.997 315.209,242.146 315.150,241.097 312.076 C 239.716 308.034,239.039 306.149,238.530 304.940 C 238.238 304.246,238.000 303.427,238.000 303.120 C 238.000 301.740,237.148 301.600,228.769 301.600 C 222.605 301.600,220.409 301.727,220.149 302.100 M242.577 347.289 C 243.492 348.595,243.497 361.655,242.584 362.414 C 241.747 363.108,227.963 362.981,227.514 362.274 C 226.987 361.446,227.139 347.421,227.680 346.880 C 228.682 345.878,241.842 346.240,242.577 347.289 " stroke="none" fill="#f3f4f2" fill-rule="evenodd"></path><path id="path3" d="M78.557 106.582 C 77.661 107.862,77.734 295.013,78.631 295.357 C 78.980 295.490,95.406 295.599,115.133 295.598 C 157.454 295.596,161.500 295.385,172.800 292.578 C 180.962 290.551,190.188 286.973,192.431 284.965 C 192.779 284.654,193.340 284.400,193.678 284.400 C 194.016 284.400,194.721 284.064,195.246 283.653 C 196.080 283.001,197.871 281.963,201.419 280.078 L 202.402 279.555 202.301 202.289 C 202.201 125.481,202.195 125.021,201.400 124.606 C 200.960 124.376,199.160 123.223,197.400 122.043 C 188.745 116.243,173.957 110.449,162.400 108.332 C 160.090 107.909,157.310 107.396,156.222 107.193 C 155.135 106.990,153.875 106.914,153.422 107.024 C 152.970 107.134,151.700 107.008,150.600 106.742 C 146.602 105.777,79.226 105.628,78.557 106.582 M153.200 139.760 C 157.552 140.660,163.798 142.347,165.600 143.110 C 166.370 143.435,167.740 144.039,168.644 144.451 C 169.548 144.863,170.393 145.200,170.522 145.200 C 170.812 145.200,175.233 147.728,177.400 149.133 C 181.973 152.098,189.023 158.981,190.972 162.383 C 191.208 162.794,191.944 163.910,192.609 164.865 C 194.817 168.035,197.350 173.697,198.762 178.622 C 199.144 179.954,199.570 181.228,199.709 181.453 C 202.404 185.814,202.470 213.449,199.805 221.800 C 199.524 222.680,198.973 224.660,198.581 226.200 C 194.080 243.869,181.450 256.666,163.800 261.442 C 156.233 263.489,150.484 263.946,131.923 263.975 L 115.645 264.000 115.023 263.111 C 114.041 261.709,114.076 140.381,115.058 139.399 C 116.051 138.406,148.116 138.710,153.200 139.760 " stroke="none" fill="#234358" fill-rule="evenodd"></path><path id="path4" d="M83.000 37.017 C 64.467 39.628,47.459 51.809,33.703 72.323 C 32.766 73.720,32.000 74.956,32.000 75.070 C 32.000 75.183,31.661 75.754,31.247 76.338 C 29.613 78.641,23.959 89.692,21.852 94.700 C 21.273 96.075,20.363 98.235,19.828 99.500 C 19.293 100.765,18.733 102.297,18.584 102.904 C 18.434 103.511,18.151 104.106,17.956 104.227 C 17.760 104.348,17.599 104.842,17.598 105.324 C 17.596 105.806,17.327 106.715,16.999 107.344 C 16.435 108.424,16.176 109.242,14.382 115.600 C 13.978 117.030,13.458 118.740,13.227 119.400 C 12.510 121.442,10.800 128.696,10.800 129.694 C 10.800 130.214,10.623 130.817,10.406 131.034 C 10.189 131.251,9.726 132.952,9.376 134.814 C 9.026 136.676,8.565 139.100,8.353 140.200 C 8.140 141.300,7.814 143.460,7.629 145.000 C 7.444 146.540,7.101 148.790,6.867 150.000 C 5.820 155.412,4.441 169.165,3.599 182.600 C 3.185 189.203,3.184 219.707,3.597 225.000 C 4.758 239.867,5.275 245.474,5.801 248.916 C 6.131 251.070,6.400 253.560,6.400 254.450 C 6.400 255.340,6.661 257.178,6.979 258.534 C 7.298 259.890,7.839 262.800,8.182 265.000 C 8.953 269.949,9.801 274.219,10.326 275.800 C 10.546 276.460,11.379 279.610,12.178 282.800 C 14.889 293.624,17.594 302.043,20.788 309.600 C 21.485 311.250,22.199 313.050,22.375 313.600 C 22.712 314.658,26.889 323.642,27.675 325.000 C 27.929 325.440,28.800 327.060,29.609 328.600 C 31.290 331.798,31.786 332.648,34.735 337.384 C 35.909 339.270,37.083 341.035,37.344 341.306 C 37.604 341.578,38.481 342.790,39.292 344.000 C 40.103 345.210,41.314 346.809,41.983 347.554 C 42.652 348.299,43.202 349.019,43.204 349.154 C 43.214 349.687,51.577 357.974,54.468 360.315 C 60.577 365.262,68.408 369.683,73.333 370.966 C 74.549 371.282,75.904 371.735,76.345 371.971 C 76.786 372.207,77.636 372.400,78.234 372.400 C 78.831 372.400,80.733 372.686,82.461 373.036 C 94.503 375.476,112.062 369.705,123.343 359.600 C 124.202 358.830,125.377 357.780,125.953 357.267 C 128.092 355.360,131.053 352.459,132.800 350.559 L 134.600 348.600 175.200 348.272 C 209.985 347.991,215.886 347.860,216.400 347.359 C 216.872 346.898,217.043 345.264,217.200 339.687 L 217.400 332.600 233.518 332.495 L 249.637 332.391 250.862 333.695 C 251.690 334.577,251.944 334.717,251.644 334.126 C 250.870 332.602,251.097 332.400,253.586 332.400 C 256.785 332.400,256.800 332.359,256.800 323.675 C 256.800 315.017,257.453 315.766,249.497 315.293 C 244.657 315.005,243.029 314.769,242.483 314.275 C 241.827 313.681,241.735 313.692,241.283 314.416 C 240.763 315.248,230.898 315.483,223.200 314.848 L 220.200 314.600 220.000 308.600 C 219.890 305.300,219.957 302.375,220.149 302.100 C 220.581 301.481,237.012 301.372,237.391 301.985 C 237.524 302.201,237.973 302.027,238.409 301.591 C 239.560 300.440,259.832 300.561,261.119 301.726 C 261.640 302.198,262.013 302.303,262.184 302.026 C 262.362 301.738,266.842 301.600,275.995 301.600 C 292.582 301.600,290.800 302.635,290.800 293.000 C 290.800 283.405,292.031 284.317,279.458 284.602 C 273.926 284.727,262.884 284.868,254.920 284.915 C 240.815 284.998,240.435 285.021,240.226 285.800 C 240.108 286.240,240.008 288.702,240.005 291.271 C 239.998 297.846,242.027 297.200,221.394 297.200 L 204.045 297.200 203.423 296.311 C 202.978 295.676,202.799 294.448,202.798 292.011 C 202.794 284.110,202.331 279.437,201.636 280.283 C 201.286 280.709,199.740 281.803,198.200 282.715 C 193.875 285.275,194.082 285.079,195.002 285.751 C 195.729 286.282,195.818 286.929,196.000 293.067 L 196.200 299.800 206.081 300.000 C 218.110 300.243,216.960 299.405,216.975 307.948 C 216.991 316.519,217.387 315.998,210.851 316.006 C 204.167 316.014,204.635 315.470,204.758 323.087 C 204.900 331.917,205.901 331.179,193.682 331.258 C 182.679 331.330,182.903 331.259,183.346 334.546 C 183.936 338.918,183.798 345.657,183.111 346.042 C 182.715 346.263,173.022 346.420,159.466 346.423 C 132.252 346.431,135.039 345.925,129.200 351.913 C 115.852 365.601,103.433 371.574,88.200 371.635 C 85.120 371.648,82.093 371.465,81.474 371.229 C 80.855 370.993,79.828 370.800,79.193 370.800 C 67.698 370.800,49.045 356.650,37.193 338.938 C 32.750 332.297,24.400 316.751,24.400 315.118 C 24.400 314.821,24.138 314.204,23.818 313.747 C 23.498 313.290,22.958 312.170,22.618 311.258 C 22.278 310.346,21.716 308.835,21.369 307.900 C 21.022 306.965,20.497 305.660,20.202 305.000 C 19.715 303.913,17.601 297.607,15.643 291.400 C 15.226 290.080,14.496 287.470,14.020 285.600 C 13.544 283.730,12.802 281.030,12.372 279.600 C 11.941 278.170,11.589 276.640,11.590 276.200 C 11.591 275.760,11.317 274.500,10.982 273.400 C 10.311 271.199,9.427 266.555,8.616 260.977 C 8.326 258.984,7.893 256.374,7.653 255.177 C 7.414 253.980,7.034 250.463,6.810 247.362 C 6.586 244.262,6.236 241.202,6.034 240.562 C 4.667 236.242,4.659 170.388,6.026 165.800 C 6.222 165.140,6.658 161.565,6.995 157.856 C 7.331 154.147,7.688 150.981,7.787 150.820 C 7.887 150.660,8.163 148.834,8.401 146.764 C 8.639 144.694,8.992 142.640,9.185 142.200 C 9.378 141.760,9.643 140.500,9.774 139.400 C 10.040 137.153,11.209 131.868,12.825 125.600 C 13.080 124.610,13.650 122.360,14.092 120.600 C 14.534 118.840,15.217 116.410,15.610 115.200 C 16.002 113.990,16.797 111.470,17.374 109.600 C 18.385 106.327,18.727 105.382,20.489 101.000 C 20.932 99.900,21.651 98.100,22.088 97.000 C 25.792 87.678,32.911 74.766,37.966 68.200 C 38.983 66.880,40.156 65.260,40.573 64.600 C 41.981 62.373,52.974 51.792,56.405 49.362 C 64.460 43.656,73.603 39.662,80.600 38.793 C 81.920 38.629,84.480 38.266,86.288 37.987 C 95.412 36.577,111.647 41.188,120.400 47.674 C 133.100 57.085,141.874 67.259,147.989 79.668 C 149.549 82.834,149.764 82.762,138.720 82.778 C 133.374 82.785,127.277 82.907,125.171 83.048 C 120.447 83.365,120.011 83.157,118.343 79.807 C 113.677 70.431,104.923 63.311,96.863 62.337 C 83.071 60.669,71.573 68.214,60.494 86.200 C 58.378 89.635,51.200 105.585,51.200 106.851 C 51.200 107.086,50.952 107.846,50.648 108.540 C 50.064 109.873,47.940 116.439,47.006 119.800 C 46.700 120.900,46.177 122.790,45.842 124.000 C 45.508 125.210,44.762 128.270,44.184 130.800 C 43.606 133.330,42.886 136.390,42.583 137.600 C 41.708 141.099,40.000 150.895,40.000 152.417 C 40.000 153.180,39.811 154.434,39.579 155.203 C 39.348 155.971,38.992 158.310,38.789 160.400 C 38.585 162.490,38.243 165.370,38.027 166.800 C 35.475 183.706,35.570 223.046,38.214 244.400 C 38.527 246.930,38.859 249.720,38.953 250.600 C 39.347 254.322,41.629 267.477,42.457 270.800 C 42.703 271.790,43.040 273.320,43.204 274.200 C 43.798 277.380,46.216 286.672,47.212 289.600 C 47.624 290.810,48.139 292.520,48.357 293.400 C 48.874 295.483,49.967 298.825,50.400 299.647 C 50.588 300.003,51.226 301.713,51.818 303.447 C 52.777 306.254,53.533 308.109,55.386 312.200 C 56.349 314.328,60.036 321.775,60.526 322.582 C 71.857 341.262,82.502 348.683,94.800 346.477 C 102.337 345.125,112.210 337.391,117.400 328.773 C 117.783 328.136,118.525 326.879,120.571 323.400 C 123.035 319.208,126.840 310.771,128.778 305.200 C 130.614 299.925,131.214 297.880,130.990 297.656 C 130.850 297.515,125.304 297.350,118.667 297.290 C 109.048 297.202,106.344 297.060,105.340 296.590 C 104.312 296.109,101.725 296.000,91.320 296.000 C 81.929 296.000,78.433 295.873,78.080 295.520 C 77.316 294.756,77.389 106.673,78.154 106.039 C 78.564 105.698,87.897 105.615,114.254 105.719 C 148.894 105.856,152.957 105.990,159.000 107.198 C 171.067 109.609,173.658 110.371,184.605 114.727 C 186.844 115.618,193.050 118.815,195.200 120.186 C 199.898 123.181,201.191 124.062,201.410 124.416 C 201.851 125.129,202.400 124.381,202.394 123.076 C 202.390 122.218,202.276 121.976,202.047 122.338 C 201.644 122.974,200.963 122.650,196.207 119.554 C 189.822 115.399,179.063 110.899,169.600 108.426 C 167.730 107.937,165.660 107.383,165.000 107.194 C 164.340 107.006,162.900 106.738,161.800 106.600 C 160.700 106.461,158.630 106.106,157.200 105.811 C 149.046 104.126,78.938 103.690,77.314 105.314 C 76.633 105.995,76.595 110.433,76.489 200.579 L 76.378 295.130 77.331 296.238 L 78.283 297.345 86.042 297.642 C 90.309 297.805,101.694 297.953,111.342 297.970 L 128.884 298.000 128.678 299.500 C 128.310 302.182,127.294 306.066,126.842 306.518 C 126.599 306.761,126.400 307.296,126.400 307.706 C 126.400 308.699,125.232 311.486,122.085 318.000 C 108.612 345.894,89.272 353.292,72.663 336.905 C 70.578 334.848,64.800 327.612,64.800 327.057 C 64.800 326.938,64.270 326.054,63.622 325.094 C 62.974 324.134,61.804 322.143,61.023 320.671 C 60.242 319.198,59.426 317.679,59.210 317.296 C 58.535 316.100,55.940 310.275,55.351 308.635 C 55.042 307.774,54.637 306.874,54.450 306.635 C 54.263 306.396,53.982 305.666,53.826 305.014 C 53.670 304.362,53.195 303.066,52.771 302.136 C 52.347 301.205,52.000 300.260,52.000 300.036 C 52.000 299.811,51.746 299.036,51.436 298.314 C 51.126 297.591,50.385 295.380,49.789 293.400 C 49.194 291.420,48.463 289.170,48.165 288.400 C 47.868 287.630,47.432 285.880,47.197 284.512 C 46.961 283.143,46.506 281.394,46.185 280.625 C 45.863 279.855,45.600 278.671,45.600 277.993 C 45.600 277.315,45.326 276.230,44.990 275.581 C 44.655 274.933,44.211 273.097,44.004 271.501 C 43.797 269.906,43.351 267.556,43.014 266.280 C 42.676 265.005,42.400 263.272,42.400 262.429 C 42.400 261.587,42.101 260.201,41.734 259.349 C 41.368 258.497,40.924 256.000,40.746 253.800 C 40.568 251.600,40.235 248.540,40.005 247.000 C 39.775 245.460,39.424 241.770,39.225 238.800 C 39.026 235.830,38.624 232.590,38.332 231.600 C 37.578 229.047,37.600 181.378,38.357 179.000 C 38.637 178.120,39.014 174.790,39.195 171.600 C 39.377 168.410,39.798 164.000,40.131 161.800 C 40.465 159.600,40.852 156.377,40.991 154.637 C 41.131 152.897,41.505 150.971,41.822 150.357 C 42.140 149.742,42.402 148.376,42.404 147.320 C 42.407 146.264,42.668 144.545,42.985 143.500 C 43.302 142.454,43.763 140.114,44.008 138.300 C 44.254 136.485,44.712 134.477,45.027 133.839 C 45.342 133.200,45.600 132.171,45.600 131.554 C 45.600 130.936,45.946 129.478,46.369 128.315 C 46.792 127.152,47.259 125.210,47.407 124.000 C 47.555 122.790,47.905 121.437,48.186 120.994 C 48.466 120.551,48.887 119.381,49.122 118.394 C 49.516 116.740,50.328 114.058,51.178 111.600 C 52.219 108.595,52.579 107.650,53.256 106.156 C 53.665 105.252,54.001 104.172,54.003 103.756 C 54.004 103.340,54.363 102.460,54.800 101.800 C 55.237 101.140,55.600 100.240,55.606 99.800 C 55.613 99.360,55.970 98.550,56.400 98.000 C 56.830 97.450,57.186 96.617,57.191 96.149 C 57.196 95.681,57.458 95.083,57.774 94.821 C 58.090 94.559,58.471 93.787,58.621 93.106 C 58.770 92.424,59.232 91.503,59.646 91.058 C 60.061 90.613,60.400 89.951,60.400 89.587 C 60.400 89.222,60.760 88.598,61.200 88.200 C 61.640 87.802,62.000 87.172,62.000 86.800 C 62.000 86.428,62.360 85.798,62.800 85.400 C 63.240 85.002,63.600 84.517,63.600 84.322 C 63.600 81.528,78.501 66.800,81.327 66.800 C 81.599 66.800,82.221 66.520,82.709 66.179 C 83.197 65.837,84.622 65.290,85.875 64.964 C 87.129 64.637,88.377 64.185,88.649 63.960 C 89.424 63.316,97.459 63.749,99.800 64.560 C 107.452 67.211,113.098 72.391,117.437 80.741 C 119.431 84.579,118.583 84.400,134.737 84.400 C 153.190 84.400,152.503 84.991,146.465 74.307 C 144.826 71.405,140.622 65.227,138.800 63.042 C 122.486 43.473,102.696 34.243,83.000 37.017 M115.287 140.300 C 114.824 141.429,114.935 262.298,115.400 262.742 C 116.009 263.323,140.823 263.686,148.200 263.222 C 170.068 261.847,183.973 254.401,192.684 239.400 C 194.881 235.617,197.985 227.957,198.600 224.800 C 198.750 224.030,199.103 222.680,199.384 221.800 C 199.666 220.920,200.116 218.400,200.385 216.200 C 200.654 214.000,201.055 211.300,201.275 210.200 C 202.062 206.276,202.161 197.631,201.451 194.868 C 201.093 193.475,200.797 191.675,200.793 190.868 C 200.771 186.599,198.880 179.153,196.242 172.950 C 195.669 171.602,195.200 170.403,195.200 170.285 C 195.200 169.598,191.436 163.691,189.114 160.733 C 180.373 149.603,167.643 142.569,152.000 140.226 C 145.428 139.242,115.697 139.302,115.287 140.300 M151.800 141.933 C 152.020 142.067,153.100 142.298,154.200 142.447 C 155.300 142.595,157.190 142.852,158.400 143.018 C 159.610 143.183,160.955 143.562,161.389 143.859 C 161.823 144.157,162.543 144.401,162.989 144.402 C 163.435 144.404,164.278 144.654,164.861 144.959 C 165.445 145.263,166.579 145.729,167.381 145.994 C 179.020 149.835,190.911 161.696,195.659 174.200 C 196.327 175.960,197.027 177.696,197.215 178.059 C 199.989 183.426,201.337 207.881,199.363 217.019 C 199.032 218.549,198.517 221.060,198.218 222.600 C 197.919 224.140,197.198 226.660,196.616 228.200 C 196.033 229.740,195.377 231.590,195.157 232.310 C 191.188 245.313,177.255 256.980,161.600 260.407 C 160.390 260.672,158.680 261.048,157.800 261.242 C 152.142 262.492,117.515 262.339,116.710 261.061 C 116.322 260.445,116.357 158.525,116.747 153.345 C 117.006 149.903,117.200 149.112,118.026 148.108 C 118.562 147.457,119.529 146.250,120.175 145.424 C 120.821 144.599,121.721 143.758,122.175 143.557 C 122.629 143.355,123.582 142.837,124.294 142.406 C 126.004 141.371,150.187 140.955,151.800 141.933 M187.600 288.963 C 184.914 290.420,175.352 293.455,170.000 294.550 C 167.341 295.094,166.800 295.411,166.800 296.424 C 166.800 297.162,167.137 297.200,173.703 297.200 L 180.606 297.200 184.203 293.970 C 189.459 289.251,190.850 287.202,187.600 288.963 M287.949 315.861 C 287.065 316.926,287.091 330.577,287.978 331.380 C 288.525 331.875,291.646 332.016,307.216 332.243 C 317.437 332.393,325.897 332.663,326.016 332.844 C 326.546 333.655,328.843 331.525,329.820 329.317 C 330.377 328.058,331.139 326.661,331.513 326.214 C 332.044 325.580,331.964 325.603,331.154 326.317 L 330.113 327.233 329.857 325.361 C 329.715 324.331,329.600 321.810,329.600 319.758 C 329.600 316.480,329.506 315.978,328.826 315.614 C 327.362 314.831,288.610 315.065,287.949 315.861 M252.002 335.222 C 252.001 335.345,252.450 336.055,253.000 336.800 C 253.550 337.545,253.994 337.985,253.986 337.778 C 253.970 337.376,252.005 334.845,252.002 335.222 M227.680 346.880 C 227.139 347.421,226.987 361.446,227.514 362.274 C 227.963 362.981,241.747 363.108,242.584 362.414 C 243.497 361.655,243.492 348.595,242.577 347.289 C 241.842 346.240,228.682 345.878,227.680 346.880 " stroke="none" fill="#96bbd0" fill-rule="evenodd"></path></g></svg>
