<?xml version="1.0" encoding="UTF-8"?>
<svg version="1.1" xmlns="http://www.w3.org/2000/svg" width="1536" height="1024">
<path d="M0 0 C506.88 0 1013.76 0 1536 0 C1536 337.92 1536 675.84 1536 1024 C1029.12 1024 522.24 1024 0 1024 C0 686.08 0 348.16 0 0 Z " fill="#FEFEFE" transform="translate(0,0)"/>
<path d="M0 0 C11.5710812 8.32988198 20.4241871 18.37304013 27 31 C27 31.99 27 32.98 27 34 C22.64755879 34.32092353 18.29815513 34.51522168 13.9375 34.6875 C12.70837891 34.77966797 11.47925781 34.87183594 10.21289062 34.96679688 C6.51633622 35.07639822 3.55857072 35.02758159 0 34 C-2.47167232 31.41925972 -3.92465083 28.98540926 -5.47045898 25.77270508 C-8.00557328 21.17712757 -12.06184109 18.44602734 -16.92578125 16.546875 C-24.40487191 14.57498669 -30.99774364 15.61058129 -37.66015625 19.41015625 C-56.65500711 32.31650733 -64.51519177 60.31808304 -68.73242188 81.71630859 C-71.6286459 97.34292927 -74.11053812 112.90576024 -74.23828125 128.82421875 C-74.24802979 129.83642487 -74.25777832 130.84863098 -74.26782227 131.89151001 C-74.49800455 162.00251723 -73.33580826 190.85215177 -65 220 C-64.78649902 220.76521973 -64.57299805 221.53043945 -64.35302734 222.31884766 C-59.57588282 239.08344967 -51.86148767 260.1559724 -36.1875 269.625 C-30.26973111 272.0887723 -23.5748412 272.16729509 -17.51171875 270.1875 C-3.54465456 263.24015201 3.2123948 247.64636969 7.99975586 233.64941406 C9.82285601 228.13407332 11.59081933 222.63672266 13 217 C4.75 216.67 -3.5 216.34 -12 216 C-12 158.91 -12 101.82 -12 43 C84.2710114 43 84.2710114 43 110.875 68.375 C115.7732053 73.47967035 119.56393235 78.83131162 123 85 C123.46019531 85.79921875 123.92039062 86.5984375 124.39453125 87.421875 C135.11618484 107.24559704 136.79348982 136.95087287 130.76586914 158.72460938 C130.22005382 160.49682741 129.61160777 162.24939809 129 164 C128.63777344 165.07378906 128.27554688 166.14757812 127.90234375 167.25390625 C122.77664721 180.85872114 113.20287343 193.86475105 101 202 C109.415 202.495 109.415 202.495 118 203 C118 207.62 118 212.24 118 217 C130.21 217 142.42 217 155 217 C155 221.62 155 226.24 155 231 C133.55 231 112.1 231 90 231 C90 235.62 90 240.24 90 245 C91.36511719 244.9278125 92.73023438 244.855625 94.13671875 244.78125 C104.10694686 244.27039988 114.01481714 243.87969659 124 244 C124 248.95 124 253.9 124 259 C112.12 259 100.24 259 88 259 C88 263.62 88 268.24 88 273 C85.78563232 272.97268799 83.57126465 272.94537598 81.28979492 272.91723633 C73.93762841 272.83466717 66.58617409 272.81326751 59.23357677 272.82121754 C54.77933305 272.82418479 50.32711274 272.80715576 45.87329102 272.74291992 C41.56708989 272.68157392 37.2638034 272.67472505 32.95730019 272.70416832 C31.32234954 272.70605813 29.68725323 272.6889769 28.05272484 272.65177345 C17.16934906 272.3920384 17.16934906 272.3920384 8.14452839 277.83320904 C6.81454334 279.25848496 5.56262684 280.75545121 4.31660461 282.25468445 C-2.95807578 290.87561747 -14.3544958 295.21857797 -25.36328125 296.34375 C-40.50760961 296.77085209 -52.80231601 290.61353771 -63.72119141 280.37426758 C-94.08250791 250.69283018 -104.63670311 199.06848682 -105.14564514 158.2460022 C-105.17637319 154.33713438 -105.18561961 150.42851294 -105.18530273 146.51953125 C-105.18747547 143.53370599 -105.20565295 140.54825962 -105.22460938 137.5625 C-105.27680852 120.1800958 -104.1905771 103.00789471 -100.75 85.9375 C-100.53384033 84.84953125 -100.31768066 83.7615625 -100.0949707 82.640625 C-94.92367782 57.47919709 -86.18548479 32.57146204 -69 13 C-68.32324219 12.22785156 -67.64648438 11.45570313 -66.94921875 10.66015625 C-48.92426515 -8.61698791 -22.77977231 -14.08841303 0 0 Z " fill="#1A4567" transform="translate(333,367)"/>
<path d="M0 0 C11.5710812 8.32988198 20.4241871 18.37304013 27 31 C27 31.99 27 32.98 27 34 C22.64755879 34.32092353 18.29815513 34.51522168 13.9375 34.6875 C12.70837891 34.77966797 11.47925781 34.87183594 10.21289062 34.96679688 C6.51633622 35.07639822 3.55857072 35.02758159 0 34 C-2.47167232 31.41925972 -3.92465083 28.98540926 -5.47045898 25.77270508 C-8.00557328 21.17712757 -12.06184109 18.44602734 -16.92578125 16.546875 C-24.40487191 14.57498669 -30.99774364 15.61058129 -37.66015625 19.41015625 C-56.65500711 32.31650733 -64.51519177 60.31808304 -68.73242188 81.71630859 C-71.6286459 97.34292927 -74.11053812 112.90576024 -74.23828125 128.82421875 C-74.24802979 129.83642487 -74.25777832 130.84863098 -74.26782227 131.89151001 C-74.49800455 162.00251723 -73.33580826 190.85215177 -65 220 C-64.78649902 220.76521973 -64.57299805 221.53043945 -64.35302734 222.31884766 C-59.57588282 239.08344967 -51.86148767 260.1559724 -36.1875 269.625 C-30.26973111 272.0887723 -23.5748412 272.16729509 -17.51171875 270.1875 C-3.56460289 263.2500745 3.20895912 247.6920405 7.95092773 233.69824219 C9.08672969 230.22811964 10.18943121 226.74894106 11.25732422 223.25732422 C12.06868179 220.7912453 13.01408577 218.40101602 14 216 C14.57390472 215.99635437 15.14780945 215.99270874 15.73910522 215.98895264 C21.80855287 215.94656498 27.87728318 215.87684469 33.94628906 215.79248047 C36.19979617 215.76456034 38.45339593 215.74320471 40.70703125 215.72900391 C69.34602558 215.60143067 69.34602558 215.60143067 95.1796875 204.359375 C99.48148881 202.2859306 103.6080314 202.6828362 108.3125 202.8125 C109.24384766 202.82603516 110.17519531 202.83957031 111.13476562 202.85351562 C113.42342712 202.8887258 115.71178929 202.94252866 118 203 C118 207.62 118 212.24 118 217 C130.21 217 142.42 217 155 217 C155 221.62 155 226.24 155 231 C133.55 231 112.1 231 90 231 C90 235.62 90 240.24 90 245 C91.36511719 244.9278125 92.73023438 244.855625 94.13671875 244.78125 C104.10694686 244.27039988 114.01481714 243.87969659 124 244 C124 248.95 124 253.9 124 259 C112.12 259 100.24 259 88 259 C88 263.62 88 268.24 88 273 C85.78563232 272.97268799 83.57126465 272.94537598 81.28979492 272.91723633 C73.93762841 272.83466717 66.58617409 272.81326751 59.23357677 272.82121754 C54.77933305 272.82418479 50.32711274 272.80715576 45.87329102 272.74291992 C41.56708989 272.68157392 37.2638034 272.67472505 32.95730019 272.70416832 C31.32234954 272.70605813 29.68725323 272.6889769 28.05272484 272.65177345 C17.16934906 272.3920384 17.16934906 272.3920384 8.14452839 277.83320904 C6.81454334 279.25848496 5.56262684 280.75545121 4.31660461 282.25468445 C-2.95807578 290.87561747 -14.3544958 295.21857797 -25.36328125 296.34375 C-40.50760961 296.77085209 -52.80231601 290.61353771 -63.72119141 280.37426758 C-94.08250791 250.69283018 -104.63670311 199.06848682 -105.14564514 158.2460022 C-105.17637319 154.33713438 -105.18561961 150.42851294 -105.18530273 146.51953125 C-105.18747547 143.53370599 -105.20565295 140.54825962 -105.22460938 137.5625 C-105.27680852 120.1800958 -104.1905771 103.00789471 -100.75 85.9375 C-100.53384033 84.84953125 -100.31768066 83.7615625 -100.0949707 82.640625 C-94.92367782 57.47919709 -86.18548479 32.57146204 -69 13 C-68.32324219 12.22785156 -67.64648438 11.45570313 -66.94921875 10.66015625 C-48.92426515 -8.61698791 -22.77977231 -14.08841303 0 0 Z " fill="#188CCB" transform="translate(333,367)"/>
<path d="M0 0 C27.30854813 17.06188522 40.49193141 49.90794844 47.7043457 79.94287109 C49.85338575 89.43138259 51.35149788 98.99834352 52.55078125 108.6484375 C52.72206543 109.82462646 52.89334961 111.00081543 53.06982422 112.21264648 C53.71902837 117.44524479 53.74994401 122.66653878 53.7890625 127.93359375 C53.79881104 129.01539917 53.80855957 130.09720459 53.81860352 131.21179199 C54.18282943 182.13603886 50.45006666 241.15782491 12.5078125 279.88671875 C5.11543363 287.0253034 -3.59999007 292.60116233 -13.44921875 295.6484375 C-14.04476563 295.83792969 -14.6403125 296.02742188 -15.25390625 296.22265625 C-28.69164334 298.82890775 -40.57233767 295.61877362 -51.98046875 288.3984375 C-71.97287672 274.226604 -82.23660195 253.74278148 -88.44921875 230.6484375 C-88.44921875 229.9884375 -88.44921875 229.3284375 -88.44921875 228.6484375 C-81.51921875 228.6484375 -74.58921875 228.6484375 -67.44921875 228.6484375 C-66.41796875 231.5565625 -65.38671875 234.4646875 -64.32421875 237.4609375 C-59.21426409 251.47102764 -53.34766774 264.59932682 -39.44921875 271.6484375 C-32.88273549 274.52127393 -27.0882705 274.45848207 -20.44921875 272.0859375 C-6.38199914 265.93692279 1.08607123 252.00271878 6.46240234 238.33007812 C17.11672704 209.75893026 21.12286341 179.72576204 20.94189453 149.34619141 C20.92578071 146.14832965 20.94188829 142.95173095 20.9609375 139.75390625 C20.99839154 103.24632523 16.58857302 52.91631792 -9.44921875 24.6484375 C-14.57076097 19.56530684 -19.53337694 16.51262751 -26.82421875 16.2109375 C-32.25194397 16.38009425 -35.97779716 17.62280748 -40.44921875 20.6484375 C-41.02027344 21.01453125 -41.59132813 21.380625 -42.1796875 21.7578125 C-61.60663854 36.16131854 -68.28710653 68.55459721 -73.44921875 90.6484375 C-80.04921875 90.6484375 -86.64921875 90.6484375 -93.44921875 90.6484375 C-89.3791766 60.93712981 -80.16484586 30.10821039 -58.44921875 8.6484375 C-57.76988281 7.95878906 -57.09054687 7.26914062 -56.390625 6.55859375 C-40.38176325 -8.65148903 -18.82656662 -10.38914203 0 0 Z " fill="#FBA511" transform="translate(1309.44921875,365.3515625)"/>
<path d="M0 0 C10.58202221 9.69384289 16.7513081 23.56835262 17.57421875 37.75390625 C18.12654436 53.92868785 14.71825651 67.79904842 4.125 80.375 C-5.79105902 90.93027605 -18.73821922 96.59408637 -33.16015625 97.453125 C-50.24666142 97.67241704 -65.1104098 93.51297673 -77.75390625 81.47265625 C-89.81098132 68.04706776 -92.43089464 52.90665503 -91.88623047 35.55859375 C-91.11001387 22.40464369 -84.75478693 10.63393585 -75.75 1.25 C-53.83616823 -17.46048094 -22.66072403 -17.78690977 0 0 Z " fill="#194466" transform="translate(569.75,483.75)"/>
<path d="M0 0 C9.5385275 7.81555326 13.41753307 17.43380159 14.91015625 29.46875 C14.99267326 31.843839 15.02804222 34.22089411 15.02368164 36.59741211 C15.02382767 37.27143066 15.02397369 37.94544922 15.02412415 38.63989258 C15.02343394 40.84199372 15.01568389 43.0440076 15.0078125 45.24609375 C15.00594514 46.78308567 15.00452274 48.32007819 15.00352478 49.85707092 C14.99972462 53.88312451 14.98991595 57.90914146 14.9788208 61.93518066 C14.96855265 66.05118311 14.96401563 70.16719153 14.95898438 74.28320312 C14.94829122 82.34507069 14.93071493 90.40690155 14.91015625 98.46875 C6.66015625 98.46875 -1.58984375 98.46875 -10.08984375 98.46875 C-11.07984375 94.01375 -11.07984375 94.01375 -12.08984375 89.46875 C-13.20359375 90.37625 -14.31734375 91.28375 -15.46484375 92.21875 C-26.97630118 100.86767805 -40.22061264 101.49057007 -54.08984375 100.46875 C-62.82385772 98.97988985 -69.32328476 95.20047458 -75.08984375 88.46875 C-80.3452884 80.54178765 -80.99772101 71.78753617 -80.08984375 62.46875 C-77.63101157 53.23985969 -73.47095368 46.66332077 -65.25390625 41.78515625 C-52.01240881 34.83086855 -39.24444718 34.30838691 -24.52734375 34.40625 C-22.58504883 34.41301758 -22.58504883 34.41301758 -20.60351562 34.41992188 C-17.43224275 34.43162399 -14.26106829 34.44801887 -11.08984375 34.46875 C-11.39810775 32.86141371 -11.71000259 31.25477346 -12.0234375 29.6484375 C-12.19673584 28.75366699 -12.37003418 27.85889648 -12.54858398 26.93701172 C-13.2443286 23.76426566 -13.8808255 21.89154421 -16.08984375 19.46875 C-22.24923761 15.85074892 -27.84187408 14.81268727 -34.90234375 14.96875 C-35.77528076 14.97938477 -36.64821777 14.99001953 -37.54760742 15.00097656 C-46.28395386 15.25666661 -53.62399462 17.31712562 -61.15234375 21.78125 C-62.12171875 22.338125 -63.09109375 22.895 -64.08984375 23.46875 C-67.08984375 22.46875 -67.08984375 22.46875 -68.16479492 20.79467773 C-68.48424072 20.08770752 -68.80368652 19.3807373 -69.1328125 18.65234375 C-69.48408203 17.88857422 -69.83535156 17.12480469 -70.19726562 16.33789062 C-70.55369141 15.53544922 -70.91011719 14.73300781 -71.27734375 13.90625 C-71.64537109 13.09994141 -72.01339844 12.29363281 -72.39257812 11.46289062 C-73.30108864 9.46888702 -74.19964711 7.47098042 -75.08984375 5.46875 C-54.2964622 -9.47167971 -22.23908443 -16.29480579 0 0 Z " fill="#FBA611" transform="translate(1065.08984375,479.53125)"/>
<path d="M0 0 C48.30972451 0 48.30972451 0 63.74609375 14.6875 C77.68233781 28.9860381 78.47717851 45.03749076 78.27734375 64.0859375 C77.95972501 75.87733558 74.82797357 85.31505855 68 95 C66.9171875 96.5778125 66.9171875 96.5778125 65.8125 98.1875 C57.31935939 106.68064061 48.94979275 108.8133886 37 112 C24.79 112 12.58 112 0 112 C0 75.04 0 38.08 0 0 Z " fill="#FEFEFE" transform="translate(355,441)"/>
<path d="M0 0 C0.61101562 0.46921875 1.22203125 0.9384375 1.8515625 1.421875 C2.7178125 1.999375 3.5840625 2.576875 4.4765625 3.171875 C12.82461046 11.08055201 17.10249018 21.42558571 19.8515625 32.421875 C19.8515625 40.011875 19.8515625 47.601875 19.8515625 55.421875 C-15.7884375 55.916875 -15.7884375 55.916875 -52.1484375 56.421875 C-48.32200552 68.33949543 -48.32200552 68.33949543 -39.0234375 75.296875 C-29.43817834 79.69618847 -17.1708963 80.25416529 -7.0859375 76.796875 C-2.68515548 74.90888518 1.21359693 72.41416811 5.07421875 69.59375 C6.8515625 68.421875 6.8515625 68.421875 8.8515625 68.421875 C10.00130089 71.003533 11.14646609 73.58705807 12.2890625 76.171875 C12.61455078 76.90148437 12.94003906 77.63109375 13.27539062 78.3828125 C13.58798828 79.09179688 13.90058594 79.80078125 14.22265625 80.53125 C14.51068115 81.18061523 14.79870605 81.82998047 15.09545898 82.49902344 C15.86364407 84.45259971 16.38799043 86.37658705 16.8515625 88.421875 C-0.41913742 99.54084331 -17.19949944 103.7958148 -37.6484375 100.359375 C-50.83309966 97.41575884 -62.83132777 90.98142195 -70.953125 79.9765625 C-80.41581786 64.95865692 -82.5724647 47.99642731 -79.46484375 30.59375 C-75.02231576 16.51038325 -65.88034587 4.83379333 -53.1484375 -2.578125 C-35.76715511 -10.96535229 -16.1281952 -11.84689248 0 0 Z " fill="#FBA612" transform="translate(1252.1484375,479.578125)"/>
<path d="M0 0 C31.02 0 62.04 0 94 0 C94 8.25 94 16.5 94 25 C72.55 25 51.1 25 29 25 C29 37.87 29 50.74 29 64 C48.14 64 67.28 64 87 64 C87 71.92 87 79.84 87 88 C67.86 88 48.72 88 29 88 C29 107.47 29 126.94 29 147 C19.43 147 9.86 147 0 147 C0 98.49 0 49.98 0 0 Z " fill="#FCA712" transform="translate(828,431)"/>
<path d="M0 0 C8.91 0 17.82 0 27 0 C27.495 40.59 27.495 40.59 28 82 C32.14516738 77.85483262 36.00250053 73.8894138 39.796875 69.48828125 C43.28417029 65.54961617 46.89497633 61.7269343 50.49829102 57.89453125 C51.06217529 57.29382813 51.62605957 56.693125 52.20703125 56.07421875 C53.11437012 55.13775513 53.11437012 55.13775513 54.04003906 54.18237305 C56.11326169 51.95260029 56.11326169 51.95260029 58.09277344 49.09301758 C61.58544037 44.52554238 64.05680205 41.44916072 69.79711914 40.12231445 C74.09135921 39.78907621 78.33462852 40.03476443 82.625 40.3125 C84.12091195 40.36779005 85.61702231 40.41796038 87.11328125 40.46289062 C90.74637249 40.58299685 94.3718873 40.77208746 98 41 C93.83615357 45.92321052 89.55206225 50.68811418 85.125 55.375 C84.48369141 56.05618896 83.84238281 56.73737793 83.18164062 57.43920898 C81.82251568 58.88270361 80.46280316 60.3256452 79.10253906 61.76806641 C76.96845995 64.03348109 74.83913084 66.30327484 72.7109375 68.57421875 C71.30733107 70.07034947 69.9036863 71.56644422 68.5 73.0625 C67.85434082 73.7519873 67.20868164 74.44147461 66.54345703 75.15185547 C62.44159291 79.51691812 58.2612829 83.79042373 54 88 C59.09505706 95.07646814 64.74927431 101.60617218 70.44628906 108.19628906 C73.29223523 111.50016245 76.10314219 114.83354407 78.91577148 118.16577148 C81.23334563 120.91133408 83.55485742 123.65327216 85.88671875 126.38671875 C101 144.12294502 101 144.12294502 101 146 C69.89737916 148.24764514 69.89737916 148.24764514 63.74609375 143.59765625 C61.3076187 141.00019511 59.61310112 138.03628472 58.01171875 134.86865234 C56.28055364 131.67117702 53.92565574 128.98740768 51.625 126.1875 C50.71589534 125.02566555 49.80969023 123.86155704 48.90625 122.6953125 C45.18225263 117.93200007 41.34627151 113.25937629 37.50244141 108.5925293 C36.98858887 107.96515869 36.47473633 107.33778809 35.9453125 106.69140625 C35.49687988 106.14685791 35.04844727 105.60230957 34.58642578 105.04125977 C32.29835413 102.09718973 30.16723297 99.03412616 28 96 C27.67 112.5 27.34 129 27 146 C18.09 146 9.18 146 0 146 C0 97.82 0 49.64 0 0 Z " fill="#1B4667" transform="translate(701,432)"/>
<path d="M0 0 C-1.4475895 3.4837349 -2.90984234 6.96112131 -4.375 10.4375 C-4.7875 11.43072266 -5.2 12.42394531 -5.625 13.44726562 C-6.02460937 14.39150391 -6.42421875 15.33574219 -6.8359375 16.30859375 C-7.20251465 17.18314209 -7.5690918 18.05769043 -7.94677734 18.95874023 C-9 21 -9 21 -11 22 C-13.0234375 21.2578125 -13.0234375 21.2578125 -15.375 20.125 C-23.56871047 16.2062689 -33.80495783 15.32122568 -42.65234375 17.71875 C-49.07256033 20.77482238 -53.47103341 25.91557484 -57 32 C-60.48621363 42.27121005 -60.47414933 53.77703771 -56.19921875 63.796875 C-52.94056207 69.78346252 -47.38105265 73.42741737 -41.3125 76.25 C-30.05531381 78.79879687 -19.651532 75.61868886 -9 72 C-7.46312518 75.09647525 -5.94834718 78.20325282 -4.4375 81.3125 C-3.78104492 82.63411133 -3.78104492 82.63411133 -3.11132812 83.98242188 C-2.70205078 84.82998047 -2.29277344 85.67753906 -1.87109375 86.55078125 C-1.48880615 87.33106689 -1.10651855 88.11135254 -0.71264648 88.9152832 C0 91 0 91 -1 94 C-16.09603818 102.78314949 -33.77924273 104.05944347 -50.58203125 100.03125 C-64.63687183 95.79070381 -75.81676628 86.83811983 -83 74 C-89.27111667 59.62231788 -90.65458575 42.7821744 -85.9375 27.6875 C-83.46045309 21.42202839 -80.35396659 16.13114521 -76 11 C-75.35417969 10.22011719 -74.70835937 9.44023437 -74.04296875 8.63671875 C-55.77065625 -11.53401583 -22.60224529 -13.63582859 0 0 Z " fill="#194465" transform="translate(687,479)"/>
<path d="M0 0 C9.24 0 18.48 0 28 0 C28 48.51 28 97.02 28 147 C18.76 147 9.52 147 0 147 C0 98.49 0 49.98 0 0 Z " fill="#FBA612" transform="translate(939,431)"/>
<path d="M0 0 C0 8.58 0 17.16 0 26 C-2.26875 25.9175 -4.5375 25.835 -6.875 25.75 C-14.66027668 25.67246748 -20.93180994 26.64972583 -27.05859375 31.6953125 C-35.1873342 40.04374864 -35.45333071 50.54309551 -35.51171875 61.6640625 C-35.52966995 62.93728363 -35.54762115 64.21050476 -35.56611633 65.52230835 C-35.61082215 68.87268438 -35.643273 72.22270454 -35.66955566 75.57324219 C-35.69957791 79.00598964 -35.74587642 82.43851729 -35.79101562 85.87109375 C-35.87807505 92.58074343 -35.93838075 99.2898764 -36 106 C-45.24 106 -54.48 106 -64 106 C-64 71.35 -64 36.7 -64 1 C-55.09 1 -46.18 1 -37 1 C-36.505 7.93 -36.505 7.93 -36 15 C-35.21625 13.80375 -34.4325 12.6075 -33.625 11.375 C-26.88570734 2.38927646 -11.07633366 -5.53816683 0 0 Z " fill="#FBA612" transform="translate(1166,472)"/>
<path d="M0 0 C7.34303022 4.85703369 10.90447455 10.86296464 13.578125 19.1171875 C15.42183234 28.83542056 14.81637985 39.60126559 9.99609375 48.3203125 C5.5158119 54.87438818 -0.04083469 59.73930193 -8.00390625 61.3203125 C-16.44810945 62.18701957 -23.01235313 61.31600703 -30.00390625 56.3203125 C-37.67210811 49.53467727 -40.45073483 41.73280948 -41.19921875 31.703125 C-41.58623722 21.76965086 -39.71814775 13.12762599 -33.31640625 5.3203125 C-24.4341741 -3.67621308 -11.44042581 -6.0035996 0 0 Z " fill="#FDFDFD" transform="translate(546.00390625,496.6796875)"/>
<path d="M0 0 C0 4.62 0 9.24 0 14 C12.21 14 24.42 14 37 14 C37 18.62 37 23.24 37 28 C15.55 28 -5.9 28 -28 28 C-28 32.62 -28 37.24 -28 42 C-26.63488281 41.9278125 -25.26976562 41.855625 -23.86328125 41.78125 C-13.89305314 41.27039988 -3.98518286 40.87969659 6 41 C6 45.95 6 50.9 6 56 C-5.88 56 -17.76 56 -30 56 C-30 60.62 -30 65.24 -30 70 C-39.9 70 -49.8 70 -60 70 C-60 65.05 -60 60.1 -60 55 C-53.73 55 -47.46 55 -41 55 C-41 50.38 -41 45.76 -41 41 C-37.37 41 -33.74 41 -30 41 C-30 36.71 -30 32.42 -30 28 C-36.27 28 -42.54 28 -49 28 C-49 22.39 -49 16.78 -49 11 C-46.81375 10.484375 -44.6275 9.96875 -42.375 9.4375 C-36.80111671 8.06146462 -32.30196551 6.18183134 -27.3125 3.25 C-18.57223706 -1.46712695 -9.68129206 -0.61360302 0 0 Z " fill="#5EB1E5" transform="translate(451,570)"/>
<path d="M0 0 C0.65597672 0.00424484 1.31195343 0.00848969 1.98780823 0.01286316 C4.05611536 0.02948096 6.12340026 0.06709637 8.19140625 0.10546875 C9.6048035 0.12053764 11.01821623 0.13422216 12.43164062 0.14648438 C15.8727206 0.17932771 19.31321344 0.2309886 22.75390625 0.29296875 C22.90820262 8.07275403 21.9957697 13.05472155 17.50390625 19.54296875 C11.55877027 25.48810473 5.66953518 27.4270159 -2.62109375 27.54296875 C-9.1014005 27.47765771 -12.69609042 26.50744533 -17.62109375 22.23046875 C-20.00666922 17.91808232 -20.1260562 14.10960533 -19.24609375 9.29296875 C-17.15064944 4.84246756 -13.61764703 2.71225824 -9.15060425 0.89071655 C-6.08259169 -0.07220687 -3.198683 -0.04118476 0 0 Z " fill="#FEFDFB" transform="translate(1031.24609375,531.70703125)"/>
<path d="M0 0 C6.10720755 3.67205517 9.72801534 8.827031 12.1171875 15.4453125 C12.5625 17.4375 12.5625 17.4375 12.5625 22.4375 C-3.2775 22.4375 -19.1175 22.4375 -35.4375 22.4375 C-33.18919515 12.32012815 -30.99772585 6.18584293 -22.4375 0.4375 C-15.74448307 -2.85285899 -6.84084508 -3.07705966 0 0 Z " fill="#FEFEFC" transform="translate(1234.4375,493.5625)"/>
<path d="M0 0 C12.21 0 24.42 0 37 0 C37 4.62 37 9.24 37 14 C24.79 14 12.58 14 0 14 C0 9.38 0 4.76 0 0 Z " fill="#59AFE4" transform="translate(486,612)"/>
<path d="M0 0 C8.91 0 17.82 0 27 0 C27 27.39 27 54.78 27 83 C26.67 83 26.34 83 26 83 C26 55.94 26 28.88 26 1 C18.08 1 10.16 1 2 1 C2 48.19 2 95.38 2 144 C9.92 144 17.84 144 26 144 C26 127.83 26 111.66 26 95 C26.33 95 26.66 95 27 95 C27 111.83 27 128.66 27 146 C18.09 146 9.18 146 0 146 C0 97.82 0 49.64 0 0 Z " fill="#042B52" transform="translate(701,432)"/>
<path d="M0 0 C0.66 0 1.32 0 2 0 C2 47.19 2 94.38 2 143 C10.25 143 18.5 143 27 143 C27 123.86 27 104.72 27 85 C27.66 85 28.32 85 29 85 C29 104.8 29 124.6 29 145 C19.43 145 9.86 145 0 145 C0 97.15 0 49.3 0 0 Z " fill="#FB9D04" transform="translate(828,433)"/>
<path d="M0 0 C4.62 0 9.24 0 14 0 C14 4.62 14 9.24 14 14 C9.38 14 4.76 14 0 14 C0 9.38 0 4.76 0 0 Z " fill="#5AB0E5" transform="translate(431,640)"/>
<path d="M0 0 C0.33 0 0.66 0 1 0 C1 19.8 1 39.6 1 60 C-7.58 60 -16.16 60 -25 60 C-25 59.34 -25 58.68 -25 58 C-17.08 58 -9.16 58 -1 58 C-1.01160156 54.4834375 -1.02320313 50.966875 -1.03515625 47.34375 C-1.0429647 43.9215504 -1.04903129 40.4993518 -1.05493164 37.07714844 C-1.05994692 34.70670118 -1.06676073 32.33625699 -1.07543945 29.96582031 C-1.08762813 26.55012247 -1.09325649 23.13446569 -1.09765625 19.71875 C-1.10539818 18.14015198 -1.10539818 18.14015198 -1.11329651 16.52966309 C-1.11371996 10.92087933 -0.83850436 5.54747521 0 0 Z " fill="#FB9C06" transform="translate(1129,518)"/>
<path d="M0 0 C1.05904289 0.00636726 1.05904289 0.00636726 2.13948059 0.01286316 C4.39155428 0.02963841 6.64272867 0.06728632 8.89453125 0.10546875 C10.4225131 0.12051718 11.95050901 0.13420531 13.47851562 0.14648438 C17.22169997 0.17953786 20.96421321 0.23131043 24.70703125 0.29296875 C23.75281317 1.44223141 22.7935108 2.58727416 21.83203125 3.73046875 C21.29835938 4.36855469 20.7646875 5.00664062 20.21484375 5.6640625 C18.70703125 7.29296875 18.70703125 7.29296875 16.70703125 8.29296875 C18.58203125 4.41796875 18.58203125 4.41796875 19.70703125 3.29296875 C15.31142086 3.17667093 10.91620696 3.10568241 6.51953125 3.04296875 C5.27365234 3.00945312 4.02777344 2.9759375 2.74414062 2.94140625 C1.54208984 2.92851562 0.34003906 2.915625 -0.8984375 2.90234375 C-2.00340576 2.88139648 -3.10837402 2.86044922 -4.24682617 2.83886719 C-7.94825262 3.39065473 -9.60231908 4.76213798 -12.29296875 7.29296875 C-9.43547087 0.9185504 -6.89102937 -0.155885 0 0 Z " fill="#0A3359" transform="translate(774.29296875,472.70703125)"/>
<path d="M0 0 C6.93 0 13.86 0 21 0 C21.33 2.31 21.66 4.62 22 7 C20 4 20 4 20 1 C14.06 1.33 8.12 1.66 2 2 C1.67 2.99 1.34 3.98 1 5 C0.67 3.35 0.34 1.7 0 0 Z " fill="#FA9707" transform="translate(1221,594)"/>
<path d="M0 0 C0.66 0.66 1.32 1.32 2 2 C1.45730469 2.50789062 0.91460938 3.01578125 0.35546875 3.5390625 C-3.71094239 7.45160944 -6.89477656 10.7369414 -9 16 C-10 13 -10 13 -9.1796875 11.1328125 C-6.44829252 6.92940825 -3.70330362 3.38587759 0 0 Z " fill="#FB9C0A" transform="translate(997,523)"/>
<path d="M0 0 C0.99 0 1.98 0 3 0 C3.33 1.65 3.66 3.3 4 5 C0.37 5 -3.26 5 -7 5 C-7 4.67 -7 4.34 -7 4 C-6.21625 3.855625 -5.4325 3.71125 -4.625 3.5625 C-2.03578982 3.12201075 -2.03578982 3.12201075 0 2 C0 1.34 0 0.68 0 0 Z " fill="#2B99CE" transform="translate(356,396)"/>
<path d="M0 0 C0.33 0.99 0.66 1.98 1 3 C-1.64 5.31 -4.28 7.62 -7 10 C-7 7 -7 7 -5.46875 5.17578125 C-4.8190625 4.56089844 -4.169375 3.94601562 -3.5 3.3125 C-2.8503125 2.68988281 -2.200625 2.06726563 -1.53125 1.42578125 C-0.77328125 0.72001953 -0.77328125 0.72001953 0 0 Z " fill="#0B2D52" transform="translate(748,494)"/>
<path d="M0 0 C2.4375 0.75 2.4375 0.75 5 2 C6.04618989 4.49476051 6 6.26856911 6 9 C4.99406757 7.8803014 3.9954151 6.7540588 3 5.625 C2.443125 4.99851562 1.88625 4.37203125 1.3125 3.7265625 C0 2 0 2 0 0 Z " fill="#0D2E53" transform="translate(755,559)"/>
<path d="M0 0 C0.66 0.66 1.32 1.32 2 2 C-0.64 4.31 -3.28 6.62 -6 9 C-6 6 -6 6 -4.6875 4.39453125 C-4.130625 3.87246094 -3.57375 3.35039062 -3 2.8125 C-2.443125 2.28269531 -1.88625 1.75289063 -1.3125 1.20703125 C-0.6628125 0.60955078 -0.6628125 0.60955078 0 0 Z " fill="#09294F" transform="translate(737,506)"/>
<path d="M0 0 C0 3 0 3 -1.375 4.4375 C-1.91125 4.953125 -2.4475 5.46875 -3 6 C-4.17574711 8.09989652 -4.17574711 8.09989652 -5 10 C-5.66 9.34 -6.32 8.68 -7 8 C-4.69 5.36 -2.38 2.72 0 0 Z " fill="#0C7CC4" transform="translate(266,378)"/>
</svg>
